<svg width="402" height="400" viewBox="0 0 402 400" fill="none" xmlns="http://www.w3.org/2000/svg">
<path d="M83.8636 82.7979L94.0868 85.6135L86.5282 87.4609C82.6823 88.0738 80.9503 89.7347 80.2487 91.9019L77.8949 110.9L74.9994 91.8575C74.6427 90.9709 74.1032 90.1694 73.416 89.5053C72.7289 88.8411 71.9096 88.3291 71.0114 88.0027L61.2412 85.6135L71.5887 82.6824C72.4423 82.3308 73.2154 81.8093 73.8613 81.1497C74.5071 80.4901 75.0122 79.7061 75.3458 78.8454L77.9216 57.3066L79.769 78.3746C80.0665 79.3766 80.5905 80.2967 81.3005 81.0637C82.0105 81.8307 82.8875 82.4241 83.8636 82.7979Z" fill="#EBEBEB"/>
<path d="M98.4921 111.611L102.16 112.624L99.4958 113.29C98.1102 113.512 97.4973 114.098 97.2398 114.871L96.3516 121.692L95.3124 114.862C95.1856 114.544 94.9925 114.257 94.7459 114.019C94.4993 113.782 94.2049 113.6 93.8824 113.485L90.3296 112.597L94.0423 111.549C94.3468 111.421 94.6224 111.233 94.8528 110.997C95.0833 110.76 95.2637 110.48 95.3834 110.172L96.2716 102.454L96.9378 110.003C97.0488 110.376 97.248 110.717 97.5186 110.997C97.7891 111.277 98.123 111.487 98.4921 111.611Z" fill="#EBEBEB"/>
<path d="M29.4102 141.071L0.459473 238.932L122.867 275.145L151.818 177.283L29.4102 141.071Z" fill="#FAFAFA"/>
<path d="M151.82 177.302C151.82 177.302 151.615 177.302 151.225 177.142L149.502 176.654L142.84 174.726L117.757 167.399L29.3283 141.401L29.7458 141.179C21.1391 170.312 11.2712 203.708 0.826025 239.041L0.577329 238.588L122.962 274.862L122.58 275.066C131.365 245.622 138.648 221.215 143.737 204.135L149.679 184.328C150.372 182.042 150.899 180.298 151.26 179.096C151.624 177.915 151.829 177.32 151.829 177.32C151.829 177.32 151.678 177.915 151.349 179.096C151.02 180.278 150.461 182.027 149.848 184.292L144.075 204.081C139.047 221.224 131.853 245.729 123.175 275.288L123.087 275.581L122.793 275.493L0.35528 239.307L0 239.201L0.106585 238.845C10.5784 203.504 20.4463 170.117 29.0974 140.993L29.1951 140.673L29.506 140.771L118.05 167.141L143.018 174.62L149.599 176.601L151.269 177.125L151.82 177.302Z" fill="#E0E0E0"/>
<path d="M31.8059 148.481L6.49854 234.027L120.313 267.697L145.62 182.151L31.8059 148.481Z" fill="#EBEBEB"/>
<path d="M6.50146 234.04L61.9872 192.624L76.7668 233.179L98.732 220.335L120.315 267.712L6.50146 234.04Z" fill="#E0E0E0"/>
<path d="M98.9899 196.487C98.4663 198.26 97.429 199.837 96.009 201.019C94.5891 202.202 92.8504 202.937 91.0127 203.132C89.175 203.326 87.3208 202.972 85.6847 202.112C84.0486 201.253 82.704 199.928 81.821 198.305C80.9379 196.682 80.556 194.833 80.7236 192.993C80.8911 191.152 81.6007 189.403 82.7624 187.966C83.9242 186.529 85.486 185.468 87.2504 184.919C89.0148 184.369 90.9025 184.355 92.6748 184.879C93.8517 185.226 94.9487 185.802 95.9031 186.573C96.8574 187.345 97.6504 188.297 98.2369 189.375C98.8233 190.453 99.1916 191.636 99.3208 192.856C99.45 194.077 99.3376 195.31 98.9899 196.487Z" fill="#E0E0E0"/>
<path d="M254.25 221.472L244.017 329.33L378.923 342.13L389.157 234.272L254.25 221.472Z" fill="#FAFAFA"/>
<path d="M389.12 234.245H388.471L386.57 234.085L379.278 233.383L351.611 230.896L254.185 221.836L254.566 221.526C251.538 253.625 248.056 290.423 244.388 329.371L244.041 328.944L378.941 341.796L378.586 342.09C381.73 309.626 384.341 282.705 386.171 263.884C387.059 254.469 387.823 247.088 388.32 242.025C388.578 239.52 388.773 237.584 388.906 236.261C389.04 234.937 389.128 234.271 389.128 234.271C389.128 234.271 389.128 234.911 388.986 236.199C388.844 237.486 388.702 239.423 388.48 241.91C388.018 246.955 387.352 254.344 386.499 263.706C384.723 282.589 382.254 309.582 379.234 342.152V342.48H378.905L243.988 329.761H243.597V329.371C247.31 290.432 250.809 253.634 253.865 221.534V221.188H254.211L351.833 230.621L379.367 233.33L386.624 234.058L388.48 234.253C388.924 234.209 389.12 234.245 389.12 234.245Z" fill="#E0E0E0"/>
<path d="M258.257 228.702L249.312 322.978L374.74 334.879L383.685 240.603L258.257 228.702Z" fill="#EBEBEB"/>
<path d="M249.282 322.958L298.648 268.511L322.309 307.743L342.578 289.89L374.713 334.851L249.282 322.958Z" fill="#E0E0E0"/>
<path d="M337.986 264.994C337.801 266.948 337.041 268.803 335.802 270.325C334.563 271.847 332.9 272.967 331.024 273.544C329.148 274.121 327.144 274.128 325.263 273.565C323.383 273.003 321.712 271.895 320.462 270.382C319.211 268.869 318.438 267.02 318.239 265.067C318.04 263.115 318.424 261.147 319.344 259.413C320.263 257.679 321.676 256.257 323.404 255.326C325.132 254.396 327.097 253.998 329.051 254.185C331.668 254.434 334.08 255.713 335.756 257.74C337.431 259.767 338.233 262.376 337.986 264.994Z" fill="#E0E0E0"/>
<path d="M126.464 249.442L26.0537 273.919L45.6234 354.197L146.034 329.72L126.464 249.442Z" fill="#FAFAFA"/>
<path d="M126.453 249.459L125.964 249.593L124.561 249.948L119.116 251.325L98.6075 256.387L26.1394 274.151L26.3348 273.832C32.1614 297.724 38.8496 325.107 45.9285 354.089L45.5643 353.876L145.957 329.486L145.771 329.788L131.711 271.531C130.032 264.523 128.709 259.016 127.803 255.25C127.359 253.376 127.021 251.938 126.79 250.943C126.559 249.948 126.453 249.451 126.453 249.451C126.453 249.451 126.586 249.93 126.826 250.881C127.065 251.831 127.43 253.279 127.891 255.126C128.78 258.874 130.174 264.346 131.906 271.327L146.259 329.673L146.313 329.912L146.073 329.975L45.7064 354.489L45.4133 354.56L45.3423 354.267C38.29 325.285 31.6285 297.893 25.8019 273.991L25.7397 273.734L25.9973 273.672L98.7052 256.094L119.223 251.165L124.632 249.877L126.017 249.557L126.453 249.459Z" fill="#E0E0E0"/>
<path d="M124.12 255.371L30.7598 278.13L47.8662 348.303L141.226 325.544L124.12 255.371Z" fill="#EBEBEB"/>
<path d="M47.8296 348.307L69.8125 296.747L96.6627 319.112L106.806 301.188L141.188 325.56L47.8296 348.307Z" fill="#E0E0E0"/>
<path d="M97.2841 284.392C97.6383 285.846 97.5535 287.373 97.0403 288.778C96.5272 290.184 95.6087 291.406 94.4011 292.29C93.1936 293.174 91.751 293.68 90.2559 293.744C88.7608 293.808 87.2802 293.427 86.0014 292.65C84.7226 291.873 83.7029 290.734 83.0713 289.377C82.4397 288.021 82.2245 286.507 82.4529 285.028C82.6814 283.549 83.3432 282.171 84.3547 281.068C85.3662 279.965 86.682 279.187 88.1357 278.832C89.1015 278.596 90.1043 278.553 91.0869 278.705C92.0694 278.856 93.0124 279.2 93.862 279.717C94.7116 280.233 95.4511 280.912 96.0383 281.714C96.6255 282.516 97.0488 283.426 97.2841 284.392Z" fill="#E0E0E0"/>
<path d="M374.449 57.8848L232.392 83.9572L253.237 197.535L395.294 171.462L374.449 57.8848Z" fill="#FAFAFA"/>
<path d="M374.455 57.875L373.772 58.0171L371.782 58.4079L364.072 59.8646L335.002 65.3092L232.459 84.3433L232.761 83.9081C238.979 117.713 246.084 156.456 253.652 197.464L253.154 197.145L395.266 171.138L394.991 171.547C388.773 137.333 383.639 108.973 380.042 89.1396C378.266 79.2184 376.863 71.4378 375.903 66.0997C375.433 63.4351 375.077 61.4189 374.829 60.0244C374.58 58.63 374.482 57.9105 374.482 57.9105C374.482 57.9105 374.633 58.5856 374.891 59.9356C375.148 61.2857 375.539 63.3197 376.036 65.9398C377.031 71.269 378.479 78.9875 380.335 88.8642C384.021 108.733 389.306 137.147 395.675 171.467L395.737 171.804L395.39 171.866L253.323 197.935L252.906 198.015L252.834 197.597C245.329 156.589 238.224 117.837 232.033 84.0324L231.971 83.6594L232.335 83.5883L335.188 64.9362L364.179 59.6692L371.826 58.3102L373.789 57.9727L374.455 57.875Z" fill="#E0E0E0"/>
<path d="M370.688 65.9711L238.607 90.2124L256.828 189.489L388.909 165.248L370.688 65.9711Z" fill="#EBEBEB"/>
<path d="M256.832 189.479L291.631 119.303L327.292 152.664L342.889 128.46L388.907 165.232L256.832 189.479Z" fill="#E0E0E0"/>
<path d="M330.952 104.266C331.33 106.324 331.09 108.448 330.261 110.369C329.432 112.291 328.052 113.923 326.296 115.06C324.539 116.197 322.485 116.788 320.392 116.757C318.3 116.726 316.264 116.076 314.541 114.888C312.819 113.699 311.487 112.027 310.715 110.082C309.943 108.137 309.766 106.007 310.205 103.961C310.643 101.915 311.679 100.045 313.181 98.588C314.683 97.1307 316.583 96.1516 318.641 95.7745C320.007 95.523 321.409 95.5432 322.767 95.8339C324.125 96.1247 325.413 96.6802 326.556 97.4688C327.699 98.2573 328.676 99.2635 329.43 100.43C330.184 101.596 330.701 102.899 330.952 104.266Z" fill="#E0E0E0"/>
<path d="M294.269 43.8592L307.92 24.3988L285.733 34.1335L286.968 4.44986L269.639 23.8925L255.321 0.683899L248.411 27.0545L226.721 24.532L241.11 47.3498L216.72 64.35L247.088 57.3421L248.065 81.4389L268.342 65.176L289.632 83.0554L287.057 59.5715L313.836 57.422L294.269 43.8592Z" fill="white"/>
<path d="M294.269 43.8592C294.269 43.8592 294.686 44.1701 295.521 44.7474L299.27 47.412L313.756 57.5553L313.818 57.3066L287.039 59.3849H286.853V59.5803C287.607 66.6149 288.469 74.5465 289.393 83.0732L289.757 82.8778L268.44 64.9717L268.28 64.8385L268.12 64.9717L247.834 81.2169L248.278 81.4123C247.967 73.7738 247.639 65.6556 247.31 57.3243V57.0046L246.999 57.0579C237.558 58.6389 226.793 62.3426 216.623 64.0569L216.827 64.5809C223.933 60.0511 232.335 53.2297 239.982 48.3802L241.226 47.5897L241.474 47.4298L241.315 47.19L226.961 24.381L226.686 24.8163L248.376 27.3387H248.624L248.687 27.0989C251.055 18.0334 253.356 9.24022 255.588 0.71944L255.091 0.799378L269.426 23.9991L269.604 24.2922L269.826 24.0346L287.137 4.57422L286.737 4.41435C286.293 15.3836 285.902 25.3048 285.547 34.0979V34.391L285.822 34.2756L308.027 24.5054L307.867 24.31C303.426 30.6784 300.051 35.5635 297.742 38.8764L295.122 42.598C294.544 43.4329 294.233 43.8504 294.233 43.8504C294.233 43.8504 294.553 43.424 295.122 42.5891L297.786 38.8764L307.992 24.461L308.267 24.0702L307.823 24.2656L285.618 33.9469L285.875 34.1246C286.257 25.3403 286.684 15.4191 287.154 4.44987V3.81037L286.737 4.29C281.307 10.3653 275.525 16.8402 269.391 23.7149H269.79L255.552 0.5418L255.224 0L255.064 0.612856C252.826 9.10995 250.516 17.9002 248.136 26.9835L248.438 26.7703L226.757 24.2478L226.153 24.1768L226.473 24.683C231.18 32.1439 235.977 39.7528 240.862 47.5097L240.959 47.1012L239.716 47.8917C232.068 52.7501 223.728 59.5715 216.56 64.1013L215.353 64.874L216.765 64.6342C226.926 62.92 237.7 59.2162 247.132 57.6263L246.804 57.3599C247.15 65.6912 247.488 73.8093 247.798 81.4478V81.9807L248.207 81.6432L268.467 65.3714H268.147C275.75 71.7309 282.927 77.7529 289.464 83.2331L289.89 83.5883L289.828 83.0377C288.878 74.511 287.998 66.5882 287.217 59.5537L287.048 59.758L313.818 57.5553H314.2L313.88 57.3421L299.394 47.3499L295.592 44.7474L294.269 43.8592Z" fill="#263238"/>
<path d="M271.629 32.5613L270.74 46.284C270.707 46.8266 270.476 47.3382 270.092 47.7226C269.707 48.107 269.196 48.3377 268.653 48.3713C268.082 48.4067 267.518 48.2207 267.08 47.8519C266.642 47.4832 266.362 46.9599 266.299 46.3906L264.781 32.5969C264.758 32.3505 264.788 32.1022 264.867 31.8679C264.946 31.6336 265.074 31.4184 265.241 31.2361C265.408 31.0538 265.612 30.9085 265.838 30.8094C266.065 30.7103 266.31 30.6596 266.557 30.6606H269.906C270.145 30.6672 270.381 30.7222 270.599 30.8223C270.817 30.9225 271.012 31.0656 271.173 31.2432C271.334 31.4208 271.457 31.6291 271.535 31.8557C271.614 32.0822 271.646 32.3222 271.629 32.5613Z" fill="#2196F3"/>
<path d="M265.03 56.0897C265.239 56.7179 265.63 57.2699 266.153 57.676C266.676 58.082 267.307 58.324 267.968 58.3713C268.628 58.4185 269.287 58.269 269.863 57.9415C270.438 57.614 270.904 57.1232 271.2 56.5313C271.497 55.9394 271.611 55.2728 271.529 54.6159C271.447 53.9589 271.172 53.341 270.739 52.8404C270.306 52.3397 269.734 51.9787 269.095 51.8029C268.457 51.6272 267.781 51.6446 267.152 51.853C266.31 52.1348 265.614 52.7389 265.216 53.5329C264.818 54.327 264.751 55.2464 265.03 56.0897Z" fill="#2196F3"/>
<path d="M195.706 101.699L190.856 49.0552C190.661 34.3733 181.974 22.2494 167.283 22.8534L165.933 22.9866C159.364 23.6419 153.283 26.748 148.901 31.6862C144.519 36.6243 142.158 43.0319 142.289 49.6325C142.529 62.3515 142.955 76.4028 143.719 83.162C145.283 97.1689 161.785 97.6485 161.785 97.6485L163.562 109.861C163.562 109.861 170.667 114.098 180.997 112.277C192.197 110.288 195.706 101.699 195.706 101.699Z" fill="#FFBE9D"/>
<path d="M161.759 97.6041C168.272 96.9633 174.463 94.4628 179.594 90.4008C179.594 90.4008 176.396 100.917 162.283 101.059L161.759 97.6041Z" fill="#EB996E"/>
<path d="M148.88 60.0422C148.938 60.5558 149.192 61.0271 149.589 61.358C149.986 61.6889 150.496 61.8539 151.011 61.8186C151.268 61.8154 151.522 61.7603 151.757 61.6567C151.992 61.5531 152.204 61.403 152.38 61.2156C152.556 61.0282 152.692 60.8072 152.78 60.5659C152.869 60.3246 152.907 60.0679 152.894 59.8113C152.847 59.2889 152.598 58.8057 152.2 58.4641C151.802 58.1225 151.286 57.9494 150.763 57.9816C150.502 57.987 150.245 58.0453 150.007 58.1531C149.769 58.2608 149.556 58.4157 149.38 58.6084C149.203 58.8011 149.068 59.0275 148.982 59.274C148.897 59.5205 148.862 59.7818 148.88 60.0422Z" fill="#263238"/>
<path d="M145.984 56.1608C146.259 56.4006 147.663 55.1216 149.821 54.9173C151.979 54.713 153.658 55.6278 153.871 55.3347C153.969 55.2104 153.667 54.7663 152.93 54.3311C151.935 53.7767 150.793 53.5469 149.661 53.6738C148.54 53.7767 147.481 54.2375 146.641 54.9883C146.028 55.5657 145.851 56.0542 145.984 56.1608Z" fill="#263238"/>
<path d="M168.669 58.1148C168.714 58.6381 168.963 59.1227 169.361 59.4647C169.76 59.8068 170.276 59.979 170.8 59.9445C171.057 59.9401 171.31 59.8841 171.545 59.7801C171.779 59.6761 171.991 59.526 172.166 59.3389C172.342 59.1517 172.478 58.9312 172.567 58.6904C172.656 58.4497 172.695 58.1935 172.683 57.9372C172.64 57.4131 172.392 56.9271 171.993 56.5846C171.594 56.2421 171.076 56.0707 170.552 56.1075C170.295 56.1132 170.043 56.1699 169.809 56.2744C169.575 56.3788 169.364 56.5289 169.189 56.7158C169.013 56.9027 168.877 57.1227 168.788 57.3629C168.698 57.6032 168.658 57.8588 168.669 58.1148Z" fill="#263238"/>
<path d="M167.203 54.4555C167.478 54.6864 168.882 53.4163 171.04 53.2031C173.198 52.9899 174.877 53.9137 175.081 53.6294C175.188 53.5051 174.895 53.0521 174.193 52.6258C173.2 52.0684 172.057 51.8354 170.925 51.9596C169.799 52.0544 168.734 52.5091 167.887 53.2564C167.247 53.8515 167.07 54.3489 167.203 54.4555Z" fill="#263238"/>
<path d="M160.977 71.2068C160.977 71.0825 159.609 70.9848 157.424 70.9226C156.865 70.9226 156.332 70.8693 156.207 70.4963C156.104 69.9348 156.175 69.355 156.412 68.8354C156.797 67.4498 157.199 65.999 157.62 64.4832C159.281 58.2658 160.426 53.2297 160.178 53.1586C159.929 53.0876 158.401 58.0615 156.714 64.2522C156.317 65.774 155.938 67.2307 155.577 68.6222C155.293 69.3187 155.268 70.0937 155.506 70.8072C155.603 70.9944 155.743 71.1562 155.914 71.2796C156.085 71.403 156.283 71.4846 156.492 71.5177C156.804 71.5604 157.121 71.5604 157.433 71.5177C159.627 71.4555 160.977 71.3312 160.977 71.2068Z" fill="#263238"/>
<path d="M167.461 72.0684C167.115 72.0684 167.337 74.4222 165.507 76.2785C163.677 78.1348 161.155 78.1259 161.164 78.4546C161.164 78.6056 161.768 78.8543 162.825 78.7832C164.195 78.6617 165.48 78.0647 166.457 77.0956C167.402 76.1533 167.938 74.8771 167.949 73.5428C167.941 72.5925 167.621 72.0418 167.461 72.0684Z" fill="#263238"/>
<path d="M165.809 46.062C166.075 46.6304 168.198 46.1419 170.756 46.1863C173.314 46.2307 175.428 46.7281 175.712 46.1863C175.837 45.9199 175.428 45.4047 174.54 44.9162C173.375 44.3285 172.088 44.0241 170.783 44.028C169.473 43.9968 168.174 44.2833 166.999 44.8629C166.111 45.2626 165.684 45.7955 165.809 46.062Z" fill="#263238"/>
<path d="M146.153 49.8457C146.579 50.2986 148.018 49.6414 149.803 49.4371C151.589 49.2328 153.125 49.4371 153.427 48.8953C153.552 48.6288 153.267 48.167 152.539 47.7673C151.597 47.3037 150.538 47.1289 149.497 47.2648C148.456 47.4007 147.478 47.8412 146.686 48.5311C146.126 49.0996 145.966 49.6236 146.153 49.8457Z" fill="#263238"/>
<path d="M143.018 43.0421C143.018 43.0421 145.833 33.8936 149.866 31.4156C154.742 28.4312 157.513 33.8314 162.256 31.984C166.999 30.1365 171.662 27.2588 177.027 30.5451C182.907 34.0979 180.633 37.2865 181.592 43.4684C185.474 68.5511 190.794 75.2304 190.918 63.2131C190.918 61.8985 194.471 60.5485 194.471 54.9528C194.471 47.7584 193.867 39.0718 191.806 34.169C190.03 30.0388 187.312 27.3298 182.631 24.5231C175.233 20.0821 165.756 20.9082 159.414 22.196C153.072 23.4839 141.312 32.0995 143.018 43.0421Z" fill="#263238"/>
<path d="M189.968 62.92C189.934 62.4041 190.005 61.8868 190.177 61.3992C190.348 60.9116 190.617 60.4638 190.966 60.0828C191.316 59.7019 191.739 59.3956 192.21 59.1825C192.681 58.9695 193.19 58.854 193.707 58.8431C196.372 58.8431 199.409 60.0333 199.773 65.4513C200.422 75.0616 190.634 73.7293 190.598 73.4451C190.563 73.1609 190.199 66.9524 189.968 62.92Z" fill="#FFBE9D"/>
<path d="M192.446 69.6969C192.446 69.6969 192.624 69.8035 192.917 69.919C193.327 70.0608 193.775 70.0385 194.169 69.8568C195.155 69.4127 195.901 67.7429 195.839 66.0109C195.808 65.1862 195.592 64.3789 195.208 63.6483C195.096 63.3541 194.914 63.091 194.68 62.8809C194.445 62.6708 194.163 62.5198 193.858 62.4403C193.662 62.4089 193.46 62.4443 193.287 62.5409C193.113 62.6376 192.976 62.7898 192.899 62.9733C192.792 63.2486 192.899 63.4351 192.81 63.4529C192.721 63.4707 192.597 63.3108 192.65 62.9022C192.687 62.6619 192.806 62.4419 192.988 62.2805C193.232 62.0645 193.551 61.9529 193.876 61.9696C194.276 62.0207 194.657 62.1742 194.981 62.4154C195.304 62.6566 195.56 62.9772 195.724 63.3463C196.198 64.1564 196.46 65.0727 196.487 66.0109C196.558 67.9472 195.688 69.8302 194.329 70.3275C194.069 70.4155 193.793 70.4436 193.521 70.4098C193.248 70.3759 192.987 70.281 192.757 70.1321C192.482 69.9279 192.419 69.7236 192.446 69.6969Z" fill="#EB996E"/>
<path d="M187.925 44.3744C186.845 45.445 185.514 46.2269 184.053 46.6482C182.569 46.9502 180.766 46.2574 180.367 44.8007C180.189 44.1435 180.278 43.353 179.78 42.8822C179.283 42.4115 178.253 42.6069 177.462 42.7756C176.075 43.0152 174.647 42.7766 173.412 42.0989C172.178 41.4212 171.21 40.3446 170.667 39.0452C170.063 40.1821 168.403 40.2976 167.257 39.7114C166.168 38.9996 165.184 38.1386 164.335 37.1533C163.446 36.2651 162.132 35.5279 160.879 35.8388C160.229 36.1363 159.546 36.3598 158.846 36.505C157.575 36.505 156.812 35.1016 156.501 33.8404C156.19 32.5791 155.888 31.1758 154.724 30.5896C153.561 30.0033 152.433 30.5896 151.296 30.8382C150.159 31.0869 148.631 30.9981 148.214 29.8968C148.135 29.5986 148.117 29.2875 148.161 28.9823C148.206 28.6771 148.311 28.3839 148.471 28.1204C149.132 26.8785 150.195 25.8976 151.486 25.3378C152.776 24.7779 154.219 24.6724 155.577 25.0383C155.891 23.3966 156.684 21.8847 157.857 20.6936C159.03 19.5026 160.529 18.6858 162.166 18.3465C163.802 18.0072 165.503 18.1605 167.052 18.7872C168.602 19.4139 169.931 20.4858 170.872 21.8674C171.8 20.8446 172.961 20.0608 174.257 19.5825C175.553 19.1041 176.945 18.9454 178.316 19.1197C179.686 19.294 180.994 19.7963 182.129 20.5839C183.263 21.3715 184.192 22.4211 184.834 23.6438C185.979 23.2049 187.228 23.1142 188.424 23.3831C189.62 23.652 190.71 24.2684 191.556 25.155C192.403 26.0416 192.969 27.1586 193.182 28.3658C193.396 29.573 193.248 30.8163 192.757 31.9396C194.578 32.7479 196.23 34.3111 196.461 36.2918C196.692 38.2725 194.96 40.4397 192.988 40.111C193.435 40.8505 193.588 41.7311 193.417 42.5782C193.245 43.4253 192.762 44.1771 192.062 44.6845C191.363 45.1919 190.498 45.4179 189.64 45.3177C188.781 45.2175 187.992 44.7984 187.428 44.1435" fill="#263238"/>
<path d="M155.195 27.9605C155.185 28.0193 155.185 28.0794 155.195 28.1382C155.195 28.2536 155.248 28.4313 155.31 28.6444C155.505 29.2821 155.805 29.8825 156.199 30.4208C156.816 31.278 157.621 31.9827 158.552 32.4814C159.783 33.1519 161.197 33.4073 162.585 33.2098L162.407 33.0055C162.301 33.4574 162.286 33.926 162.364 34.3836C162.442 34.8413 162.61 35.2787 162.86 35.6701C163.374 36.4888 164.006 37.228 164.734 37.8639C165.09 38.2382 165.486 38.5718 165.916 38.8587C166.401 39.1222 166.944 39.2625 167.496 39.2673C168.07 39.2949 168.642 39.1805 169.161 38.9342C169.68 38.6878 170.131 38.3171 170.472 37.855L170.099 37.7929C170.332 38.7765 170.769 39.7004 171.381 40.5051C171.992 41.3097 172.766 41.9773 173.652 42.4648C174.63 43.0473 175.771 43.2967 176.903 43.1753C177.964 43.024 178.992 42.6905 179.94 42.1894L179.674 42.1006C180.284 43.212 181.164 44.1525 182.232 44.8363C182.724 45.1816 183.288 45.4126 183.881 45.5125C184.474 45.6123 185.082 45.5786 185.66 45.4136C186.653 45.0907 187.529 44.4834 188.179 43.6671C188.83 42.8507 189.226 41.8613 189.32 40.8216L189.106 40.946C190.172 41.3808 191.355 41.4341 192.455 41.097C193.274 40.8579 194.026 40.4288 194.649 39.8446C195.04 39.4791 195.362 39.0457 195.599 38.5656C195.684 38.4022 195.75 38.2293 195.794 38.0504C195.478 38.6863 195.051 39.2607 194.533 39.7469C193.917 40.2884 193.185 40.6805 192.393 40.8927C191.346 41.1891 190.23 41.1169 189.231 40.6884L189.044 40.6085V40.8127C188.936 41.7759 188.551 42.6868 187.934 43.4344C187.317 44.182 186.496 44.7339 185.571 45.0228C185.045 45.1682 184.493 45.1943 183.955 45.099C183.417 45.0037 182.907 44.7896 182.463 44.4721C181.452 43.8207 180.621 42.9258 180.047 41.8697L179.958 41.7009L179.78 41.7898C178.871 42.263 177.89 42.5812 176.876 42.7312C175.828 42.8388 174.774 42.6018 173.874 42.0562C173.035 41.5923 172.304 40.9571 171.727 40.192C171.15 39.4269 170.741 38.5489 170.525 37.6152L170.419 37.1711L170.152 37.5442C169.851 37.9516 169.455 38.2789 168.998 38.4972C168.541 38.7156 168.038 38.8184 167.532 38.7965C167.045 38.7947 166.566 38.6727 166.138 38.4412C165.732 38.1715 165.357 37.8588 165.018 37.5086C164.311 36.9265 163.689 36.2478 163.171 35.4924C162.718 34.7906 162.559 33.9391 162.727 33.1209L162.78 32.8811H162.54C161.217 33.0897 159.862 32.8654 158.677 32.2416C157.766 31.7788 156.968 31.1207 156.341 30.3142C155.826 29.6016 155.438 28.8053 155.195 27.9605Z" fill="#455A64"/>
<path d="M193.752 45.2093C193.481 45.7925 193.111 46.3245 192.659 46.7814C191.635 47.9431 190.437 48.938 189.106 49.7302C187.775 50.5373 186.324 51.1279 184.807 51.48C184.192 51.6651 183.548 51.7373 182.907 51.6931C184.983 51.1709 186.986 50.3891 188.867 49.3661C190.663 48.1905 192.304 46.794 193.752 45.2093Z" fill="white"/>
<path d="M194.409 50.0766C194.099 50.5832 193.709 51.0361 193.254 51.4178C191.172 53.403 188.662 54.883 185.918 55.7433C185.352 55.9685 184.75 56.0889 184.141 56.0986C185.998 55.3809 187.807 54.5473 189.559 53.6027C191.244 52.5245 192.863 51.347 194.409 50.0766Z" fill="white"/>
<path d="M162.878 105.101L138.31 111.993C135.392 112.799 132.826 114.556 131.018 116.985L112.766 142.574L118.521 149.173L254.584 149.235C254.584 149.235 249.371 130.121 247.656 124.259C245.072 115.377 241.563 112.899 238.366 109.666C236.878 108.338 235.143 107.317 233.259 106.664C227.61 105.429 200.804 99.2029 195.706 99.345C195.706 99.345 190.456 111.833 178.146 111.718C165.835 111.602 162.878 105.101 162.878 105.101Z" fill="#455A64"/>
<path d="M219.882 127.945C219.971 127.945 220.238 126.79 221.064 125.058C222.177 122.821 223.64 120.776 225.398 119.001C227.177 117.229 229.077 115.582 231.082 114.071C231.938 113.471 232.749 112.809 233.507 112.091C232.568 112.568 231.675 113.133 230.843 113.778C228.751 115.213 226.797 116.84 225.007 118.637C223.203 120.446 221.746 122.572 220.708 124.907C220.402 125.617 220.156 126.351 219.971 127.101C219.892 127.375 219.862 127.661 219.882 127.945Z" fill="#263238"/>
<path d="M140.904 143.027C141.031 142.04 141.064 141.044 141.001 140.051C141.001 138.213 140.886 135.681 140.673 132.883C140.46 130.086 140.167 127.554 139.909 125.778C139.817 124.789 139.636 123.811 139.367 122.856C139.338 123.848 139.397 124.841 139.545 125.822C139.714 127.803 139.927 130.263 140.149 132.928C140.371 135.592 140.495 138.07 140.637 140.033C140.644 141.037 140.733 142.038 140.904 143.027Z" fill="#263238"/>
<g opacity="0.3">
<path d="M132.466 146.659C134.83 146.113 137.023 144.994 138.852 143.4C140.575 141.703 141.517 138.959 140.46 136.8C142.164 140.421 144.878 143.472 148.275 145.587C151.672 147.701 155.608 148.789 159.609 148.72L125.689 149.137C127.836 148.033 130.113 147.201 132.466 146.659Z" fill="black"/>
</g>
<g opacity="0.3">
<path d="M217.271 149.173L217.84 135.983L208.576 149.155L217.271 149.173Z" fill="black"/>
</g>
<path d="M217.271 149.182C217.187 146.578 217.255 143.971 217.475 141.375C217.545 138.768 217.765 136.167 218.132 133.585C218.216 136.189 218.148 138.796 217.928 141.392C217.858 143.999 217.639 146.6 217.271 149.182Z" fill="#263238"/>
<path d="M195.91 137.689H269.462L273.663 133.487H318.383C319.835 133.487 321.226 134.064 322.252 135.09C323.278 136.116 323.855 137.508 323.855 138.959V146.348H190.98L190.82 143.071C190.786 142.38 190.891 141.688 191.131 141.039C191.371 140.389 191.739 139.795 192.215 139.292C192.691 138.789 193.263 138.388 193.898 138.112C194.533 137.837 195.218 137.692 195.91 137.689Z" fill="#2196F3"/>
<path d="M92.3906 254.638L93.3765 156.696C93.4022 153.952 94.5103 151.329 96.4597 149.398C98.4091 147.467 101.042 146.384 103.786 146.384H328.847C331.594 146.384 334.229 147.47 336.179 149.405C338.129 151.34 339.235 153.967 339.256 156.714L339.994 254.638L350.35 297.413V312.699H343.014V356.478C343.009 364.162 339.953 371.529 334.519 376.96C329.084 382.392 321.715 385.443 314.032 385.443H113.965C106.278 385.443 98.9068 382.389 93.4716 376.954C88.0364 371.519 84.983 364.147 84.983 356.461V310.834H77.6465V297.413L92.3906 254.638Z" fill="#2196F3"/>
<path d="M92.3902 254.638C92.3902 254.638 92.0794 255.588 91.4576 257.427L88.6509 265.633L77.7438 297.449C77.7438 301.659 77.7438 306.141 77.7438 310.896L77.6284 310.789H85.0804V310.834C85.0804 320.4 85.0804 330.96 85.0804 342.445C85.0804 345.317 85.0804 348.245 85.0804 351.229C84.9882 354.261 85.0861 357.296 85.3735 360.315C85.7645 363.43 86.6932 366.453 88.118 369.251C89.5656 372.156 91.4866 374.801 93.8025 377.076C98.7143 381.861 105.176 384.731 112.019 385.167C113.796 385.292 115.572 385.256 117.349 385.265H133.718H180.446H285.644H314.067C318.878 385.211 323.605 383.992 327.843 381.712L329.379 380.771L330.152 380.3L330.88 379.758L332.328 378.674L333.669 377.449L334.344 376.836L334.957 376.17L336.183 374.82L337.284 373.363L337.826 372.635C338.004 372.386 338.146 372.12 338.306 371.862L339.256 370.299C339.549 369.766 339.798 369.206 340.064 368.656C340.585 367.55 341.039 366.414 341.423 365.254C342.161 362.909 342.597 360.479 342.72 358.024C342.809 356.798 342.8 355.555 342.8 354.311V343.075C342.8 333.045 342.8 322.919 342.8 312.699V312.468H350.367L350.136 312.699V297.511C349.088 293.168 347.952 288.478 346.815 283.779C344.399 273.832 342.009 263.955 339.78 254.744V254.691C339.54 223.018 339.309 192.179 339.087 162.46C338.91 158.792 339.638 154.884 337.666 151.731C336.762 150.179 335.465 148.892 333.906 148.001C332.347 147.109 330.58 146.643 328.784 146.65H265.305L121.31 146.517H106.362C105.154 146.517 103.937 146.517 102.809 146.57C101.642 146.693 100.504 147.011 99.4425 147.512C97.3422 148.5 95.6434 150.177 94.6285 152.264C94.1277 153.271 93.8004 154.355 93.6604 155.47C93.536 156.58 93.5627 157.708 93.5449 158.819C93.5449 161.057 93.5449 163.26 93.4738 165.409C93.4265 169.738 93.382 173.924 93.3406 177.968C93.163 194.142 93.012 208.052 92.8876 219.412C92.7633 230.772 92.6478 239.574 92.5767 245.542C92.5767 248.518 92.5057 250.792 92.4879 252.319C92.4702 253.847 92.4879 254.62 92.4879 254.62C92.4879 254.62 92.4879 253.838 92.4879 252.31C92.4879 250.783 92.4879 248.509 92.4879 245.525C92.5412 239.556 92.6123 230.754 92.71 219.394C92.8077 208.034 92.9409 194.125 93.0919 177.951C93.1274 173.912 93.1659 169.729 93.2074 165.4C93.2074 163.242 93.2074 161.048 93.2695 158.819C93.2695 157.708 93.2695 156.58 93.3761 155.435C93.6042 153.683 94.2676 152.017 95.3056 150.588C96.3436 149.159 97.7231 148.013 99.3182 147.254C100.409 146.734 101.58 146.401 102.782 146.268C103.999 146.18 105.189 146.268 106.406 146.215H121.354H265.349H328.74C330.146 146.205 331.541 146.473 332.843 147.003C334.146 147.534 335.33 148.318 336.328 149.309C337.326 150.299 338.119 151.478 338.659 152.776C339.2 154.075 339.478 155.467 339.478 156.874C339.478 158.721 339.478 160.577 339.522 162.434C339.745 192.153 339.984 222.991 340.224 254.655V254.602C342.462 263.822 344.852 273.698 347.259 283.637C348.396 288.345 349.533 293.034 350.589 297.378V312.948H343.022L343.253 312.717V354.356C343.253 355.599 343.253 356.843 343.173 358.095C343.048 360.589 342.606 363.057 341.858 365.44C341.467 366.619 341.005 367.773 340.473 368.895C340.198 369.446 339.949 370.015 339.656 370.565L338.679 372.12C338.519 372.386 338.368 372.652 338.19 372.91L337.64 373.647L336.52 375.131L335.277 376.498L334.655 377.182L333.971 377.795L332.612 379.039L331.138 380.113L330.401 380.664L329.619 381.144L328.047 382.094C323.742 384.398 318.94 385.618 314.058 385.647H285.636H180.437H133.709H117.366C115.59 385.647 113.814 385.647 112.037 385.549C105.117 385.106 98.5843 382.198 93.6248 377.351C91.2881 375.046 89.3466 372.373 87.8782 369.437C86.4469 366.603 85.5126 363.545 85.1159 360.395C84.8322 357.364 84.7373 354.317 84.8317 351.274C84.8317 348.289 84.8317 345.358 84.8317 342.489C84.8317 331.005 84.8317 320.444 84.8317 310.878L84.9471 311.003H77.5396V310.834C77.5396 306.097 77.5396 301.614 77.5396 297.387C82.3447 283.531 86.0396 272.846 88.5443 265.625L91.3954 257.427C92.0527 255.579 92.3902 254.638 92.3902 254.638Z" fill="#263238"/>
<path d="M142.394 238.093C149.428 230.46 148.942 218.57 141.308 211.536C133.675 204.502 121.785 204.988 114.752 212.621C107.718 220.254 108.204 232.144 115.837 239.178C123.47 246.212 135.36 245.726 142.394 238.093Z" fill="#E0E0E0"/>
<path d="M147.37 225.354C147.343 225.255 147.328 225.154 147.326 225.052C147.326 224.821 147.326 224.528 147.263 224.164C147.241 223.681 147.185 223.2 147.095 222.725C147.002 222.074 146.869 221.431 146.695 220.797C146.251 219.046 145.545 217.372 144.599 215.832C143.367 213.786 141.754 211.994 139.847 210.556C137.542 208.801 134.855 207.614 132.004 207.092C128.733 206.489 125.36 206.771 122.234 207.909C121.403 208.211 120.593 208.567 119.809 208.975C119.018 209.41 118.258 209.9 117.535 210.441C116.794 210.984 116.09 211.577 115.43 212.217C114.794 212.896 114.201 213.614 113.654 214.367C112.499 215.919 111.6 217.646 110.989 219.483C109.722 223.285 109.722 227.396 110.989 231.198C111.6 233.034 112.499 234.761 113.654 236.314C114.196 237.073 114.789 237.795 115.43 238.472C116.095 239.107 116.798 239.701 117.535 240.249C118.258 240.79 119.018 241.279 119.809 241.714C120.593 242.122 121.403 242.479 122.234 242.78C126.301 244.258 130.755 244.275 134.833 242.83C138.912 241.385 142.361 238.566 144.59 234.857C145.534 233.317 146.241 231.643 146.686 229.892C146.861 229.256 146.994 228.609 147.086 227.956C147.177 227.481 147.233 227 147.255 226.517C147.255 226.153 147.299 225.851 147.317 225.629C147.318 225.527 147.333 225.425 147.361 225.327C147.371 225.427 147.371 225.529 147.361 225.629C147.361 225.86 147.361 226.153 147.361 226.517C147.361 227.003 147.32 227.487 147.237 227.965C147.167 228.628 147.046 229.284 146.873 229.928C146.456 231.708 145.767 233.412 144.83 234.982C143.463 237.297 141.62 239.295 139.422 240.845C137.225 242.394 134.724 243.46 132.084 243.97C128.747 244.596 125.304 244.32 122.11 243.171C121.258 242.864 120.428 242.502 119.623 242.087C118.804 241.668 118.015 241.193 117.26 240.666C116.502 240.1 115.781 239.486 115.102 238.828C114.431 238.14 113.808 237.407 113.237 236.634C112.053 235.044 111.132 233.275 110.51 231.393C109.207 227.497 109.207 223.282 110.51 219.385C111.13 217.503 112.051 215.733 113.237 214.145C113.81 213.371 114.433 212.635 115.102 211.942C115.781 211.286 116.502 210.675 117.26 210.112C118.004 209.562 118.784 209.064 119.596 208.62C120.399 208.202 121.23 207.84 122.083 207.536C125.277 206.383 128.721 206.107 132.058 206.737C134.694 207.24 137.194 208.298 139.39 209.842C141.586 211.386 143.428 213.379 144.794 215.69C145.731 217.26 146.42 218.964 146.837 220.744C147.009 221.385 147.131 222.038 147.201 222.698C147.284 223.179 147.326 223.666 147.326 224.155C147.326 224.528 147.326 224.821 147.326 225.043C147.351 225.145 147.365 225.249 147.37 225.354Z" fill="#263238"/>
<g opacity="0.3">
<path d="M77.6465 297.413H350.35L339.994 254.646H92.3995L77.6465 297.413Z" fill="black"/>
</g>
<path d="M320.249 197.979H288.904C287.727 197.979 286.597 197.512 285.764 196.679C284.931 195.846 284.463 194.716 284.463 193.538V162.158C284.463 160.981 284.931 159.851 285.764 159.018C286.597 158.185 287.727 157.717 288.904 157.717H320.249C321.427 157.717 322.556 158.185 323.389 159.018C324.222 159.851 324.69 160.981 324.69 162.158V193.503C324.695 194.089 324.583 194.67 324.362 195.213C324.141 195.756 323.815 196.25 323.402 196.666C322.989 197.082 322.498 197.413 321.957 197.638C321.416 197.863 320.835 197.979 320.249 197.979ZM288.904 158.57C287.962 158.57 287.058 158.944 286.392 159.611C285.726 160.277 285.352 161.181 285.352 162.123V193.503C285.352 194.445 285.726 195.349 286.392 196.015C287.058 196.681 287.962 197.056 288.904 197.056H320.249C321.191 197.056 322.095 196.681 322.761 196.015C323.427 195.349 323.802 194.445 323.802 193.503V162.158C323.802 161.216 323.427 160.312 322.761 159.646C322.095 158.98 321.191 158.606 320.249 158.606L288.904 158.57Z" fill="#263238"/>
<path d="M322.014 181.925C324.266 172.3 318.29 162.672 308.665 160.42C299.041 158.168 289.413 164.145 287.161 173.769C284.909 183.393 290.886 193.021 300.51 195.273C310.134 197.525 319.762 191.549 322.014 181.925Z" fill="#263238"/>
<path d="M157.744 166.573H113.583C110.242 166.573 107.534 169.281 107.534 172.621V183.191C107.534 186.531 110.242 189.24 113.583 189.24H157.744C161.085 189.24 163.793 186.531 163.793 183.191V172.621C163.793 169.281 161.085 166.573 157.744 166.573Z" fill="#FAFAFA"/>
<path d="M157.744 189.231C158.237 189.189 158.727 189.112 159.209 189C160.591 188.632 161.797 187.785 162.611 186.61C163.198 185.772 163.556 184.796 163.65 183.777C163.704 182.658 163.65 181.415 163.65 180.091C163.65 178.768 163.65 177.347 163.65 175.846C163.65 175.099 163.65 174.327 163.65 173.527C163.689 172.728 163.62 171.928 163.446 171.147C163.231 170.324 162.839 169.557 162.297 168.901C161.756 168.244 161.078 167.714 160.311 167.345C158.721 166.457 156.758 166.821 154.813 166.759H142.289H113.592C112.374 166.764 111.189 167.148 110.201 167.858C109.212 168.568 108.469 169.569 108.076 170.721C107.782 171.88 107.677 173.08 107.765 174.273V181.468C107.676 182.612 107.766 183.762 108.031 184.878C108.366 185.921 108.985 186.85 109.821 187.558C110.656 188.266 111.673 188.725 112.757 188.884C113.29 188.945 113.828 188.966 114.364 188.946H119.169H125.245H136.161L151.962 189.017H156.252H157.371C157.498 189.004 157.626 189.004 157.753 189.017H157.371H156.252L151.962 189.062L136.161 189.142H125.245H114.355C113.798 189.162 113.24 189.138 112.686 189.071C111.522 188.904 110.428 188.413 109.53 187.655C108.632 186.896 107.965 185.9 107.605 184.781C107.428 184.205 107.329 183.607 107.312 183.004C107.312 182.418 107.312 181.832 107.312 181.228V172.506C107.328 171.863 107.439 171.225 107.641 170.614C108.063 169.37 108.864 168.29 109.931 167.524C110.998 166.757 112.278 166.344 113.592 166.342H142.289H154.813H157.699C158.661 166.335 159.61 166.554 160.471 166.981C161.28 167.376 161.993 167.942 162.562 168.64C163.131 169.338 163.542 170.151 163.766 171.023C163.939 171.831 164.005 172.658 163.961 173.483C163.961 174.282 163.961 175.055 163.961 175.801C163.961 177.302 163.961 178.723 163.961 180.047C163.961 181.37 163.961 182.596 163.908 183.75C163.796 184.801 163.414 185.805 162.798 186.664C161.943 187.864 160.68 188.711 159.245 189.044C158.758 189.186 158.251 189.249 157.744 189.231Z" fill="#263238"/>
<path d="M219.98 252.63C246.93 252.63 268.778 230.783 268.778 203.833C268.778 176.882 246.93 155.035 219.98 155.035C193.03 155.035 171.183 176.882 171.183 203.833C171.183 230.783 193.03 252.63 219.98 252.63Z" fill="#263238"/>
<path d="M219.98 253.101C210.241 253.101 200.72 250.213 192.622 244.802C184.524 239.391 178.212 231.699 174.486 222.701C170.759 213.703 169.784 203.802 171.685 194.249C173.586 184.697 178.277 175.923 185.164 169.037C192.051 162.151 200.826 157.462 210.379 155.563C219.931 153.664 229.833 154.64 238.83 158.368C247.828 162.097 255.518 168.41 260.927 176.509C266.337 184.607 269.223 194.129 269.222 203.868C269.208 216.923 264.015 229.438 254.783 238.669C245.551 247.899 233.035 253.089 219.98 253.101ZM219.98 155.515C210.417 155.515 201.068 158.351 193.116 163.664C185.165 168.977 178.967 176.529 175.307 185.364C171.647 194.2 170.69 203.922 172.556 213.301C174.421 222.681 179.027 231.297 185.789 238.059C192.551 244.822 201.167 249.427 210.547 251.293C219.926 253.158 229.649 252.201 238.484 248.541C247.32 244.881 254.871 238.684 260.184 230.732C265.498 222.78 268.334 213.432 268.334 203.868C268.329 191.042 263.234 178.742 254.168 169.67C245.102 160.597 232.806 155.493 219.98 155.479V155.515Z" fill="#455A64"/>
<path d="M219.98 248.18C211.031 248.172 202.286 245.51 194.849 240.532C187.413 235.553 181.62 228.482 178.202 220.212C174.784 211.941 173.894 202.843 175.646 194.068C177.398 185.292 181.712 177.233 188.044 170.909C194.375 164.585 202.44 160.28 211.217 158.538C219.995 156.797 229.092 157.697 237.358 161.125C245.625 164.552 252.689 170.354 257.659 177.796C262.628 185.238 265.28 193.987 265.278 202.936C265.264 214.94 260.485 226.448 251.992 234.932C243.498 243.415 231.984 248.18 219.98 248.18ZM219.98 158.57C211.209 158.579 202.637 161.187 195.348 166.065C188.059 170.944 182.38 177.873 179.027 185.978C175.675 194.083 174.8 203 176.513 211.602C178.227 220.204 182.451 228.105 188.653 234.307C194.855 240.509 202.756 244.733 211.358 246.446C219.96 248.16 228.877 247.285 236.982 243.932C245.087 240.58 252.016 234.9 256.894 227.611C261.773 220.322 264.381 211.751 264.39 202.98C264.39 191.202 259.711 179.906 251.382 171.577C243.054 163.249 231.758 158.57 219.98 158.57Z" fill="#455A64"/>
<path d="M219.98 239.751C240.033 239.751 256.29 223.495 256.29 203.442C256.29 183.389 240.033 167.132 219.98 167.132C199.927 167.132 183.67 183.389 183.67 203.442C183.67 223.495 199.927 239.751 219.98 239.751Z" fill="#455A64"/>
<path d="M138.905 234.854C144.139 229.144 143.753 220.273 138.043 215.039C132.334 209.805 123.462 210.191 118.228 215.901C112.994 221.61 113.38 230.482 119.09 235.716C124.8 240.95 133.671 240.564 138.905 234.854Z" fill="#2196F3"/>
<path d="M142.6 225.354C142.501 224.209 142.323 223.072 142.067 221.952C141.736 220.648 141.209 219.403 140.504 218.257C139.58 216.735 138.374 215.402 136.951 214.331C135.233 213.032 133.235 212.153 131.116 211.764C128.685 211.323 126.181 211.535 123.859 212.377C122.607 212.823 121.43 213.458 120.369 214.26C119.821 214.672 119.299 215.117 118.805 215.592C118.32 216.098 117.869 216.635 117.455 217.2C115.713 219.561 114.772 222.419 114.772 225.354C114.772 228.288 115.713 231.146 117.455 233.507C117.867 234.072 118.318 234.606 118.805 235.106C119.295 235.586 119.817 236.031 120.369 236.438C121.427 237.243 122.605 237.879 123.859 238.321C126.883 239.419 130.194 239.434 133.228 238.363C136.262 237.293 138.83 235.203 140.495 232.45C141.199 231.304 141.726 230.059 142.058 228.756C142.314 227.635 142.492 226.499 142.591 225.354C142.591 225.354 142.591 225.434 142.591 225.576C142.591 225.718 142.591 225.975 142.591 226.251C142.592 226.614 142.562 226.976 142.503 227.334C142.447 227.828 142.358 228.318 142.236 228.8C141.925 230.131 141.412 231.407 140.717 232.584C139.696 234.316 138.318 235.813 136.675 236.973C135.032 238.134 133.161 238.932 131.187 239.316C128.689 239.794 126.108 239.588 123.717 238.721C122.421 238.268 121.201 237.618 120.102 236.794C119.533 236.375 118.993 235.918 118.486 235.426C117.983 234.906 117.514 234.354 117.082 233.774C115.279 231.33 114.306 228.373 114.306 225.336C114.306 222.299 115.279 219.342 117.082 216.898C117.508 216.319 117.974 215.77 118.477 215.255C118.986 214.762 119.526 214.302 120.093 213.878C121.192 213.054 122.412 212.404 123.708 211.951C126.101 211.091 128.68 210.888 131.178 211.365C133.154 211.744 135.027 212.541 136.67 213.702C138.314 214.863 139.69 216.361 140.708 218.097C141.405 219.273 141.917 220.549 142.227 221.881C142.349 222.363 142.438 222.852 142.494 223.346C142.553 223.704 142.583 224.067 142.582 224.43C142.582 224.696 142.582 224.918 142.582 225.096C142.582 225.274 142.6 225.354 142.6 225.354Z" fill="#263238"/>
<path d="M134.553 215.202C133.765 214.819 132.952 214.49 132.119 214.216C129.825 213.528 127.377 213.546 125.094 214.269C123.418 214.811 121.886 215.726 120.614 216.944C119.342 218.162 118.362 219.653 117.748 221.304C117.393 222.252 117.166 223.244 117.073 224.252C116.979 225.305 117.027 226.365 117.215 227.405C117.612 229.6 118.636 231.632 120.164 233.258C121.691 234.883 123.656 236.031 125.822 236.563C127.842 237.057 129.957 237.005 131.95 236.412C133.746 235.856 135.384 234.882 136.729 233.57C137.891 232.418 138.799 231.035 139.394 229.51C140.26 227.278 140.433 224.835 139.891 222.503C139.739 221.871 139.543 221.25 139.305 220.646C139.206 220.439 139.123 220.226 139.056 220.007C139.092 220.055 139.124 220.105 139.154 220.158C139.207 220.255 139.287 220.406 139.385 220.611C139.671 221.203 139.9 221.822 140.069 222.458C140.686 224.829 140.556 227.332 139.696 229.626C139.098 231.207 138.175 232.644 136.987 233.845C135.602 235.213 133.912 236.232 132.057 236.82C129.992 237.449 127.795 237.511 125.698 236.998C123.441 236.457 121.393 235.265 119.809 233.57C118.221 231.88 117.157 229.767 116.745 227.485C116.559 226.403 116.514 225.302 116.611 224.208C116.912 221.2 118.34 218.417 120.608 216.418C121.87 215.293 123.361 214.453 124.978 213.958C127.321 213.242 129.828 213.27 132.155 214.038C132.771 214.247 133.366 214.515 133.931 214.837L134.375 215.095L134.553 215.202Z" fill="#263238"/>
<path d="M339.993 254.638C339.993 254.771 284.561 254.877 216.205 254.877C147.849 254.877 92.3901 254.771 92.3901 254.638C92.3901 254.504 147.805 254.407 216.196 254.407C284.587 254.407 339.993 254.513 339.993 254.638Z" fill="#263238"/>
<path d="M347.641 312.752H346.957H344.958H337.275H309.022C285.165 312.664 252.177 312.362 215.814 311.944C179.451 311.527 146.437 311.171 122.553 311.012L94.3086 310.834L86.6257 310.781H94.3086H122.562C146.419 310.861 179.407 311.163 215.823 311.58C252.239 311.997 285.174 312.353 309.031 312.521L337.284 312.699L344.967 312.752H346.966H347.641Z" fill="#263238"/>
<path d="M320.382 351.576H107.614V363.087H320.382V351.576Z" fill="#263238"/>
<path d="M112.33 357.331L96.7603 399.698H333.35L315.381 357.331H112.33Z" fill="white"/>
<path d="M112.33 357.331C112.33 357.331 112.659 357.331 113.316 357.331H116.247H127.616L170.045 357.269L315.381 357.171H315.532L315.586 357.313C321.368 370.929 327.39 385.132 333.563 399.68L333.696 400H317.033L96.7603 399.902H96.5737L96.6359 399.725L108.182 368.496L111.256 360.227C111.602 359.338 111.869 358.592 112.046 358.104C112.224 357.615 112.321 357.402 112.321 357.402C112.321 357.402 112.242 357.651 112.073 358.139L111.3 360.28L108.289 368.567C105.624 375.823 101.77 386.411 96.8846 399.787L96.7691 399.618L317.042 399.512H333.359L333.145 399.831C326.972 385.283 320.959 371.08 315.186 357.464L315.39 357.598L170.179 357.5L127.705 357.438H116.301H113.352L112.33 357.331Z" fill="#263238"/>
<g opacity="0.3">
<path d="M243.251 220.238C242.807 215.672 238.81 214.02 235.053 213.541C227.139 212.43 218.177 214.695 211.675 210.077C209.601 208.551 208.017 206.454 207.115 204.042C206.212 201.631 206.032 199.009 206.595 196.496C207.483 192.686 210.148 188.502 207.563 185.287C207.061 184.69 206.438 184.206 205.735 183.866C205.033 183.526 204.266 183.338 203.486 183.315C202.004 183.276 200.533 183.58 199.187 184.203C196.28 185.486 193.916 187.75 192.508 190.598C189.232 197.342 188.632 205.076 190.829 212.244C192.171 216.712 194.5 220.821 197.644 224.268C200.788 227.715 204.667 230.411 208.993 232.157C213.346 233.836 218.012 234.547 222.667 234.24C227.322 233.934 231.855 232.617 235.95 230.381C239.032 228.684 241.936 226.375 242.975 222.84C243.23 221.998 243.323 221.115 243.251 220.238Z" fill="white"/>
</g>
<g opacity="0.3">
<path d="M223.284 178.421C223.286 179.158 223.069 179.879 222.66 180.492C222.252 181.106 221.671 181.584 220.991 181.867C220.31 182.15 219.561 182.224 218.838 182.081C218.116 181.937 217.452 181.583 216.931 181.062C216.41 180.541 216.055 179.877 215.912 179.154C215.769 178.431 215.843 177.682 216.126 177.002C216.409 176.322 216.887 175.74 217.5 175.332C218.114 174.924 218.834 174.707 219.571 174.709C220.556 174.709 221.5 175.1 222.197 175.796C222.893 176.492 223.284 177.437 223.284 178.421Z" fill="white"/>
</g>
<path d="M207.154 235.532C206.938 235.471 206.729 235.384 206.532 235.275C206.142 235.079 205.538 234.84 204.818 234.387C202.741 233.256 200.788 231.91 198.992 230.372C196.319 228.09 193.994 225.43 192.09 222.476C187.315 215.199 185.477 206.381 186.948 197.802C187.508 194.348 188.567 190.994 190.092 187.845C191.122 185.719 192.372 183.706 193.822 181.841C194.32 181.175 194.782 180.713 195.066 180.375C195.207 180.201 195.362 180.038 195.528 179.887C195.413 180.081 195.282 180.265 195.137 180.437C194.879 180.793 194.444 181.264 193.973 181.956C192.594 183.845 191.404 185.865 190.421 187.987C188.935 191.131 187.909 194.473 187.374 197.908C185.963 206.382 187.776 215.076 192.455 222.28C194.32 225.213 196.593 227.866 199.205 230.159C200.968 231.708 202.878 233.083 204.907 234.262C205.609 234.706 206.204 234.964 206.577 235.151C206.782 235.258 206.975 235.386 207.154 235.532Z" fill="white"/>
<path d="M222.218 237.895C220.974 238.053 219.715 238.053 218.47 237.895C217.214 237.9 215.961 237.754 214.74 237.46C215.987 237.302 217.249 237.302 218.497 237.46C219.75 237.456 221 237.602 222.218 237.895Z" fill="white"/>
<path d="M253.829 208.371C253.732 208.371 254.14 206.595 254.273 203.779C254.273 203.06 254.318 202.287 254.273 201.452C254.229 200.617 254.167 199.72 254.078 198.788C253.589 194.735 252.322 190.814 250.348 187.241C249.868 186.433 249.459 185.642 248.953 184.967C248.447 184.292 248.065 183.644 247.585 183.075C245.809 180.846 244.477 179.683 244.539 179.611C244.887 179.839 245.208 180.104 245.498 180.402C245.868 180.721 246.218 181.062 246.546 181.423C246.937 181.85 247.434 182.312 247.843 182.871C248.348 183.472 248.822 184.097 249.264 184.745C249.77 185.429 250.223 186.22 250.721 187.028C252.764 190.641 254.049 194.634 254.495 198.761C254.593 199.646 254.647 200.535 254.655 201.426C254.681 202.211 254.66 202.997 254.593 203.779C254.559 204.425 254.491 205.068 254.389 205.707C254.334 206.191 254.251 206.671 254.14 207.146C254.071 207.562 253.967 207.972 253.829 208.371Z" fill="white"/>
<g opacity="0.3">
<path d="M84.9829 310.869V323.002H343.013V312.699L84.9829 310.869Z" fill="black"/>
</g>
<path d="M119.267 357.331L107.117 394.431H322.993L308.924 357.331H119.267Z" fill="#455A64"/>
<path d="M316.332 357.331C316.332 357.455 270.43 357.562 213.834 357.562C157.238 357.562 111.327 357.455 111.327 357.331C111.327 357.207 157.211 357.1 213.834 357.1C270.456 357.1 316.332 357.198 316.332 357.331Z" fill="#263238"/>
<path d="M314.147 172.692L329.886 177.036L318.259 179.878C312.317 180.828 309.662 183.377 308.587 186.69L304.954 216.001L300.513 186.69C299.966 185.325 299.136 184.091 298.078 183.068C297.021 182.046 295.759 181.258 294.376 180.757L279.276 177.071L295.211 172.559C296.526 172.018 297.717 171.215 298.712 170.198C299.706 169.181 300.482 167.971 300.993 166.644L304.963 133.478L307.814 165.924C308.277 167.464 309.09 168.876 310.188 170.05C311.287 171.224 312.641 172.128 314.147 172.692Z" fill="white"/>
<path d="M322.256 212.963L325.925 213.976L323.216 214.642C321.83 214.864 321.217 215.459 320.96 216.223L320.116 223.044L319.077 216.214C318.95 215.896 318.757 215.609 318.51 215.371C318.263 215.134 317.969 214.952 317.647 214.837L314.138 213.949L317.851 212.901C318.155 212.773 318.431 212.586 318.661 212.349C318.892 212.113 319.072 211.832 319.192 211.524L320.08 203.806L320.746 211.356C320.853 211.724 321.046 212.062 321.308 212.341C321.57 212.621 321.895 212.834 322.256 212.963Z" fill="white"/>
<path d="M267.89 137.795C267.89 137.795 264.71 133.47 263.147 132.644C261.583 131.818 259.416 131.853 258.475 132.706L257.524 133.594C257.524 133.594 252.586 131.382 250.206 133.088C250.206 133.088 245.507 130.867 243.26 133.407C243.26 133.407 239.636 131.054 238.108 133.105C236.581 135.157 236.732 138.639 237.478 140.424C238.224 142.209 239.6 148.311 240.684 148.418C240.684 148.418 243.571 148.72 243.962 147.166C244.352 145.611 244.503 144.847 244.503 144.847C244.503 144.847 245.614 150.372 246.937 150.647C248.26 150.923 250.801 150.772 250.889 148.347C250.889 148.347 252.124 150.177 253.332 149.644C254.54 149.111 255.997 148.231 255.89 146.73C255.783 145.229 255.739 143.737 255.739 143.737C255.739 143.737 256.396 145.922 257.515 145.442C258.635 144.963 259.7 145.069 260.313 143.222C260.926 141.375 262.445 137.839 262.445 137.839L267.89 137.795Z" fill="#FFBE9D"/>
<path d="M255.819 143.568C255.89 143.568 255.597 142.973 255.348 142.005C255.015 140.759 254.961 139.455 255.188 138.186C255.429 136.905 255.947 135.692 256.707 134.633C257.293 133.825 257.755 133.399 257.71 133.345C257.666 133.292 257.115 133.638 256.44 134.42C255.56 135.464 254.967 136.718 254.718 138.06C254.469 139.402 254.573 140.786 255.019 142.076C255.159 142.632 255.434 143.144 255.819 143.568Z" fill="#EB996E"/>
<path d="M249.904 133.07C249.584 133.759 249.372 134.493 249.273 135.246C248.932 137.045 248.818 138.881 248.935 140.708C249.062 142.523 249.42 144.314 250.001 146.038C250.189 146.769 250.488 147.467 250.889 148.107C250.147 145.672 249.644 143.17 249.388 140.637C249.311 138.104 249.483 135.569 249.904 133.07Z" fill="#EB996E"/>
<path d="M243.144 133.434C242.802 135.365 242.778 137.339 243.073 139.278C243.221 141.234 243.693 143.152 244.468 144.954C244.61 144.91 243.908 142.396 243.579 139.225C243.251 136.054 243.295 133.443 243.144 133.434Z" fill="#EB996E"/>
<path d="M223.71 134.677C223.829 134.427 224.003 134.206 224.218 134.031C224.433 133.856 224.684 133.731 224.954 133.665C225.58 133.531 226.229 133.548 226.846 133.715C227.464 133.881 228.034 134.193 228.507 134.624C229.555 135.556 230.454 136.643 231.171 137.848L224.172 137.804C224.226 136.747 223.32 135.672 223.71 134.677Z" fill="#FFBE9D"/>
<path d="M84.3255 197.775C88.1866 198.425 92.0794 198.87 95.9875 199.107L105.154 205.325L110.963 212.963C110.145 214.633 106.317 213.923 106.317 213.923L100.837 209.064L96.6981 208.176L98.4745 211.205L106.912 216.996L108.937 218.71C108.937 218.71 114.338 221.765 116.247 223.151C118.335 224.652 119.107 225.904 118.477 226.757C117.713 227.77 115.732 227.645 114.578 227.112L104.301 223.107C104.301 223.107 99.8601 225.22 97.5685 225.052C95.277 224.883 91.3511 224.164 91.3511 224.164L88.6866 225.745C88.4348 226.014 88.1004 226.192 87.7362 226.251C86.8671 226.449 85.9634 226.439 85.0989 226.222C84.2344 226.004 83.4337 225.585 82.7623 224.998L76.4649 219.669C75.0794 218.506 72.6279 215.024 70.4785 211.773C69.1632 209.798 68.319 207.547 68.011 205.194C67.703 202.841 67.9394 200.449 68.7021 198.201C69.3459 196.438 70.3693 194.837 71.7 193.512C73.0307 192.188 74.6361 191.172 76.4028 190.536L93.0476 167.958L92.9588 198.921" fill="#FFBE9D"/>
<path d="M94.5308 219.065C95.9128 220.201 97.4816 221.087 99.1672 221.685C100.792 222.436 102.535 222.899 104.319 223.053C104.319 222.911 102.054 222.334 99.3537 221.224C96.6535 220.113 94.6107 218.941 94.5308 219.065Z" fill="#EB996E"/>
<path d="M88.4202 222.902C88.3403 223.044 89.5571 223.657 91.0848 224.057C92.012 224.394 92.9942 224.553 93.9804 224.528C93.11 224.073 92.1756 223.752 91.2092 223.577C90.2994 223.277 89.3667 223.051 88.4202 222.902Z" fill="#EB996E"/>
<path d="M111.176 219.9C110.375 219.275 109.539 218.696 108.671 218.168C107.117 217.111 104.994 215.628 102.703 213.905C101.557 213.017 100.473 212.217 99.505 211.444C98.6282 210.809 97.8577 210.039 97.2223 209.162C96.6724 208.33 96.3875 207.352 96.4052 206.355C96.2811 206.608 96.2318 206.892 96.2631 207.172C96.2923 207.943 96.5219 208.693 96.9292 209.348C97.542 210.292 98.3145 211.121 99.2119 211.8C100.18 212.59 101.255 213.443 102.409 214.304C104.71 216.028 106.85 217.484 108.485 218.461C109.325 219.04 110.228 219.522 111.176 219.9Z" fill="#EB996E"/>
<path d="M97.4263 208.14C97.4263 208.22 98.1724 208.345 99.3004 208.789C100.769 209.381 102.088 210.291 103.164 211.453C103.718 212.155 104.34 212.8 105.02 213.381C105.631 213.843 106.362 214.121 107.125 214.18C107.798 214.282 108.486 214.224 109.133 214.011C109.133 213.923 108.36 214.011 107.17 213.825C106.487 213.731 105.843 213.455 105.305 213.025C104.663 212.437 104.069 211.798 103.528 211.116C102.406 209.893 100.991 208.976 99.4158 208.451C98.7863 208.193 98.1047 208.086 97.4263 208.14Z" fill="#EB996E"/>
<path d="M95.0549 199.063C95.0549 198.912 90.9159 198.672 85.9509 197.837C80.9859 197.002 77.0689 195.963 77.0156 196.159C77.8027 196.491 78.6169 196.756 79.4493 196.949C81.0125 197.375 83.2508 197.899 85.7821 198.317C88.8363 198.905 91.946 199.155 95.0549 199.063Z" fill="#EB996E"/>
</svg>
