<svg id="Layer_1" data-name="Layer 1" xmlns="http://www.w3.org/2000/svg" viewBox="0 0 1000 1000"><defs><style>.cls-1{fill:#3bc1f1;}.cls-2{fill:#12a2ab;}.cls-3{fill:#15b269;}.cls-4{fill:#10ad1e;}.cls-5{fill:#3def4b;}.cls-6{fill:#3df49c;}</style></defs><title>phuc</title><path d="M500,71.46C263.33,71.46,71.46,263.33,71.46,500S263.33,928.54,500,928.54,928.54,736.67,928.54,500,736.67,71.46,500,71.46Zm0,816.11c-214,0-387.57-173.52-387.57-387.57S286,112.43,500,112.43,887.57,286,887.57,500,714.05,887.57,500,887.57Z"/><path class="cls-1" d="M666,478.79s63-94.53,28.36-277.29c0,0-115-107.13-337.16-31.51C357.21,170,561.24,230.65,666,478.79Z"/><path class="cls-2" d="M569.12,345.66s-67.75-113.44-231.6-165.43c0,0-178,96.11-190.64,278.86C146.88,459.09,302.86,307.85,569.12,345.66Z"/><path class="cls-3" d="M405.26,358.26S225.66,383.47,146.88,478c0,0-29.93,173.3,138.64,302.5C285.52,780.5,244.56,552.05,405.26,358.26Z"/><path class="cls-4" d="M329.64,512.66s-58.29,154.4-25.21,285.17c0,0,126,108.71,335.58,31.51C640,829.34,441.5,771,329.64,512.66Z"/><path class="cls-5" d="M424.17,651.3S651,701.72,854.28,542.6c0,0-4.73,185.9-193.79,277.28C660.49,819.88,534.45,782.07,424.17,651.3Z"/><path class="cls-6" d="M593.54,639.49s132.34-1.58,261.53-113.44c0,0,9.45-214.27-149.67-313.52C705.4,212.53,767.63,429.16,593.54,639.49Z"/></svg>