<svg width="300" height="300" viewBox="0 0 300 300" fill="none" xmlns="http://www.w3.org/2000/svg">
<path d="M43.9336 277.255C102.512 307.582 197.486 307.582 256.064 277.255C314.642 246.928 314.649 197.77 256.064 167.443C197.478 137.116 102.512 137.123 43.9336 167.443C-14.6445 197.763 -14.6445 246.935 43.9336 277.255Z" fill="#F5F5F5"/>
<path d="M248.936 261.888C266.742 261.888 281.177 255.071 281.177 246.661C281.177 238.252 266.742 231.435 248.936 231.435C231.13 231.435 216.695 238.252 216.695 246.661C216.695 255.071 231.13 261.888 248.936 261.888Z" fill="#E0E0E0"/>
<path d="M18.8915 236.464C18.793 235.829 18.5511 235.225 18.1837 234.696C17.5038 233.974 16.5842 233.518 15.5931 233.413C14.6096 233.319 13.6316 233.177 12.6628 232.985C11.1958 232.589 9.94749 231.633 9.19224 230.326C8.43699 229.018 8.23666 227.467 8.63533 226.013V225.971C8.89722 225.046 9.39269 224.19 9.65458 223.264C10.3624 220.816 8.43007 219.799 6.68178 218.621C5.45727 217.8 3.46125 216.594 3.71606 214.869C4.19737 211.629 9.01047 210.808 13.6254 212.105C18.2403 213.403 20.7035 214.42 24.1292 213.508C27.555 212.596 30.7331 212.386 32.5309 215.43C34.3288 218.474 32.5309 221.314 34.8455 223.439C37.16 225.565 41.2157 224.106 42.8083 228.707V256.123C42.8083 255.961 42.0156 255.421 41.9023 255.33L39.3613 253.107C38.5827 252.406 37.4573 251.788 36.9264 250.919C36.1761 249.712 35.8081 248.282 35.0436 247.061C34.1827 245.595 32.9411 244.384 31.448 243.554C28.5106 242.054 24.9432 242.313 21.9634 240.861C20.8699 240.374 19.9833 239.523 19.4577 238.456C19.2028 237.812 19.0131 237.145 18.8915 236.464Z" fill="#2196F3"/>
<path opacity="0.2" d="M18.8915 236.464C18.793 235.829 18.5511 235.225 18.1837 234.696C17.5038 233.974 16.5842 233.518 15.5931 233.413C14.6096 233.319 13.6316 233.177 12.6628 232.985C11.1958 232.589 9.94749 231.633 9.19224 230.326C8.43699 229.018 8.23666 227.467 8.63533 226.013V225.971C8.89722 225.046 9.39269 224.19 9.65458 223.264C10.3624 220.816 8.43007 219.799 6.68178 218.621C5.45727 217.8 3.46125 216.594 3.71606 214.869C4.19737 211.629 9.01047 210.808 13.6254 212.105C18.2403 213.403 20.7035 214.42 24.1292 213.508C27.555 212.596 30.7331 212.386 32.5309 215.43C34.3288 218.474 32.5309 221.314 34.8455 223.439C37.16 225.565 41.2157 224.106 42.8083 228.707V256.123C42.8083 255.961 42.0156 255.421 41.9023 255.33L39.3613 253.107C38.5827 252.406 37.4573 251.788 36.9264 250.919C36.1761 249.712 35.8081 248.282 35.0436 247.061C34.1827 245.595 32.9411 244.384 31.448 243.554C28.5106 242.054 24.9432 242.313 21.9634 240.861C20.8699 240.374 19.9833 239.523 19.4577 238.456C19.2028 237.812 19.0131 237.145 18.8915 236.464Z" fill="black"/>
<path d="M42.9075 250.084C42.824 250.084 42.7432 250.055 42.6786 250.003C42.6141 249.951 42.5699 249.878 42.5536 249.797C39.6303 233.287 20.1231 218.039 8.50799 215.191C8.41895 215.17 8.34216 215.114 8.29442 215.037C8.24667 214.959 8.23184 214.866 8.25318 214.778C8.27503 214.688 8.33196 214.61 8.41152 214.561C8.49109 214.512 8.58684 214.497 8.67787 214.518C20.477 217.408 40.2815 232.908 43.2543 249.677C43.2624 249.723 43.2613 249.77 43.2511 249.815C43.2409 249.86 43.2217 249.903 43.1948 249.941C43.1678 249.978 43.1335 250.011 43.0939 250.035C43.0543 250.06 43.0102 250.076 42.9641 250.084H42.9075Z" fill="white"/>
<path d="M15.317 227.15C15.2629 227.149 15.2095 227.137 15.1607 227.114C15.1118 227.091 15.0685 227.057 15.0338 227.016C14.9767 226.943 14.9514 226.85 14.9633 226.758C14.9753 226.666 15.0235 226.582 15.0975 226.525C17.8651 224.351 23.5134 223.72 25.7713 223.853C25.8651 223.859 25.9529 223.901 26.0153 223.971C26.0777 224.041 26.1096 224.132 26.1039 224.225C26.0983 224.318 26.0556 224.405 25.9853 224.467C25.9149 224.529 25.8227 224.56 25.7288 224.555C23.4143 224.4 18.0349 225.116 15.5364 227.072C15.4738 227.122 15.3967 227.149 15.317 227.15Z" fill="white"/>
<path d="M28.1779 226.645H28.0434C28.0004 226.628 27.9611 226.604 27.9278 226.572C27.8945 226.541 27.8678 226.503 27.8494 226.461C27.8309 226.42 27.8211 226.375 27.8204 226.329C27.8196 226.283 27.8281 226.238 27.8452 226.196C29.3245 222.633 28.553 216.636 28.5105 216.573C28.4984 216.482 28.5227 216.39 28.5782 216.317C28.6338 216.243 28.7162 216.194 28.8078 216.18C28.9015 216.168 28.9963 216.193 29.0717 216.25C29.1471 216.306 29.1972 216.389 29.2113 216.482C29.2113 216.734 30.0465 222.731 28.5035 226.462C28.4718 226.52 28.4245 226.567 28.367 226.6C28.3094 226.632 28.2439 226.647 28.1779 226.645Z" fill="white"/>
<path d="M41.3717 260.934C40.5223 258.465 36.4171 253.268 29.0842 249.2C22.6714 245.659 12.8046 243.035 13.6539 238.371C14.5033 233.707 23.627 233.602 29.9335 237.354C37.8398 242.061 42.2777 251.69 42.7944 255.485L41.3717 260.934Z" fill="#2196F3"/>
<path d="M42.1362 258.332C42.0532 258.333 41.9726 258.305 41.909 258.252C41.8453 258.199 41.8029 258.126 41.7894 258.045C40.1472 249.425 27.8172 237.705 17.9787 237.965C17.9322 237.966 17.8858 237.959 17.8421 237.943C17.7985 237.927 17.7584 237.903 17.7242 237.872C17.69 237.841 17.6624 237.803 17.6429 237.761C17.6234 237.719 17.6125 237.674 17.6106 237.628C17.6087 237.581 17.6163 237.535 17.6328 237.491C17.6492 237.447 17.6744 237.407 17.7067 237.373C17.739 237.339 17.7778 237.312 17.8209 237.293C17.8639 237.274 17.9104 237.264 17.9575 237.263C28.1287 237.011 40.7984 249.046 42.483 257.911C42.4999 258.002 42.4806 258.096 42.4291 258.173C42.3777 258.25 42.298 258.305 42.207 258.325H42.1362V258.332Z" fill="white"/>
<path d="M259.574 222.247C260.99 217.59 265.598 213.319 269.54 210.752C273.483 208.185 276.491 206.922 278.232 205.471C280.356 203.717 277.602 199.558 271.105 201.999C264.607 204.44 260.657 211.6 258.286 218.832L259.574 222.247Z" fill="#2196F3"/>
<path opacity="0.2" d="M259.574 222.247C260.99 217.59 265.598 213.319 269.54 210.752C273.483 208.185 276.491 206.922 278.232 205.471C280.356 203.717 277.602 199.558 271.105 201.999C264.607 204.44 260.657 211.6 258.286 218.832L259.574 222.247Z" fill="black"/>
<path d="M259.355 219.21H259.214C259.117 219.174 259.038 219.102 258.994 219.009C258.951 218.915 258.946 218.809 258.98 218.712C261.436 212.358 267.87 204.685 274.948 203.051C275.052 203.035 275.159 203.059 275.245 203.119C275.331 203.18 275.389 203.271 275.408 203.374C275.424 203.469 275.404 203.567 275.352 203.648C275.3 203.73 275.219 203.789 275.125 203.815C269.144 205.218 262.519 211.741 259.716 218.993C259.684 219.06 259.632 219.116 259.568 219.154C259.504 219.193 259.43 219.212 259.355 219.21Z" fill="white"/>
<path d="M258.102 240.651C259.829 238.764 263.552 239.48 265.641 236.983C267.29 235.019 266.03 232.136 267.686 230.264C268.165 229.782 268.742 229.407 269.378 229.163C270.772 228.664 272.122 228.049 273.412 227.325C274.651 226.504 275.67 225.165 275.536 223.699C275.401 222.233 274.311 221.006 274.354 219.561C274.472 218.518 274.961 217.551 275.734 216.833C276.506 216.127 277.196 215.339 277.794 214.483C278.113 214.003 278.246 213.425 278.169 212.856C278.057 212.457 277.828 212.1 277.512 211.829C277.196 211.559 276.807 211.386 276.392 211.334C274.219 210.92 272.329 212.141 270.447 213.024C268.84 213.782 267.332 213.648 265.57 213.655C264.866 213.62 264.161 213.698 263.482 213.887C262.109 214.343 261.195 215.633 260.573 216.938C259.95 218.242 259.518 219.652 258.626 220.788C257.965 221.478 257.345 222.206 256.772 222.97C256.298 223.935 255.994 224.974 255.873 226.042C255.311 228.611 255.118 231.246 255.299 233.869C255.396 235.144 255.67 236.399 256.113 237.6C256.255 237.873 257.925 240.84 258.102 240.651Z" fill="#2196F3"/>
<path d="M272.031 224.723H271.932C271.876 224.723 266.369 223.355 262.398 224.26C262.296 224.281 262.19 224.263 262.101 224.208C262.013 224.153 261.949 224.066 261.924 223.966C261.901 223.864 261.919 223.758 261.975 223.67C262.03 223.582 262.119 223.519 262.221 223.496C266.369 222.556 271.89 223.909 272.131 223.966C272.181 223.979 272.228 224.003 272.269 224.035C272.31 224.066 272.344 224.106 272.37 224.151C272.395 224.196 272.412 224.245 272.418 224.297C272.425 224.348 272.421 224.4 272.407 224.45C272.385 224.531 272.338 224.602 272.271 224.654C272.205 224.706 272.123 224.735 272.039 224.737L272.031 224.723Z" fill="white"/>
<path d="M265.499 220.816C265.399 220.815 265.304 220.777 265.232 220.709C265.16 220.641 265.116 220.55 265.109 220.452C264.892 218.948 264.471 217.481 263.857 216.089C263.837 216.001 263.848 215.909 263.889 215.828C263.93 215.747 263.998 215.683 264.081 215.646C264.164 215.609 264.257 215.601 264.345 215.625C264.434 215.648 264.511 215.7 264.564 215.774C265.217 217.246 265.66 218.802 265.881 220.396C265.887 220.499 265.852 220.601 265.783 220.68C265.714 220.758 265.617 220.807 265.513 220.816H265.499Z" fill="white"/>
<path d="M256.439 238.308H256.396C256.294 238.298 256.201 238.248 256.136 238.169C256.071 238.09 256.04 237.989 256.05 237.888C257.239 227.76 263.404 219.652 274.375 213.719C274.466 213.671 274.573 213.66 274.672 213.689C274.771 213.718 274.855 213.784 274.906 213.873C274.931 213.918 274.946 213.967 274.952 214.017C274.958 214.068 274.953 214.119 274.939 214.168C274.924 214.217 274.9 214.263 274.868 214.302C274.835 214.342 274.795 214.375 274.75 214.399C264.02 220.185 257.989 228.111 256.835 237.972C256.822 238.066 256.774 238.152 256.701 238.214C256.628 238.276 256.535 238.309 256.439 238.308Z" fill="white"/>
<path d="M94.4072 48.471L89.8277 51.087C89.8559 50.8896 89.8701 50.6903 89.8702 50.4909V49.1723C89.8702 46.8368 88.2139 45.89 86.1683 47.0683C85.2902 47.6044 84.5394 48.3221 83.9671 49.1723C83.6273 46.2336 81.3057 45.1395 78.4745 46.7597C76.8634 47.8 75.5227 49.202 74.5609 50.852C73.5992 52.502 73.0437 54.3535 72.9394 56.2561V58.2199C72.9185 59.0057 73.0808 59.7857 73.4136 60.4993L69.6127 62.6735C69.0161 63.0567 68.5193 63.574 68.1626 64.1834C67.8059 64.7927 67.5995 65.477 67.5601 66.1803C67.5601 67.4778 68.4731 68.0039 69.6127 67.3516L94.386 53.1701C94.9806 52.7849 95.476 52.2671 95.8324 51.6581C96.1888 51.0492 96.3964 50.366 96.4386 49.6633C96.4599 48.3517 95.5397 47.8257 94.4072 48.471Z" fill="#EBEBEB"/>
<path d="M64.1558 36.4288L61.636 37.3896V31.8769C61.636 27.5145 58.097 26.4624 54.3031 28.6507C50.481 30.8319 47.3879 36.1412 47.3879 40.5107V41.3102C46.851 41.1444 46.283 41.1025 45.7273 41.1876C45.1715 41.2726 44.6428 41.4825 44.1815 41.8012C42.7368 42.738 41.5353 43.9991 40.6744 45.4821C39.8136 46.9651 39.3177 48.6283 39.2268 50.3368V50.7015L35.6878 52.7144C34.7355 53.3291 33.9426 54.1574 33.3732 55.1322C32.8039 56.1069 32.4741 57.2008 32.4106 58.3253C32.4106 60.4293 33.8758 61.2359 35.6878 60.1979L64.1558 43.9263C65.1082 43.3116 65.9011 42.4833 66.4704 41.5085C67.0397 40.5338 67.3695 39.4399 67.433 38.3154C67.433 36.2114 65.9678 35.3908 64.1558 36.4288Z" fill="#EBEBEB"/>
<path d="M129.656 260.647L129.564 260.738C129.495 260.81 129.413 260.869 129.323 260.913C129.146 261.025 129.054 260.913 128.892 260.808L127.568 260.036C127.016 259.721 126.379 259.335 125.699 258.935C125.02 258.536 124.284 258.101 123.576 257.645C122.16 256.754 120.709 255.842 119.662 255.127L117.914 253.928C117.914 253.928 118.692 254.264 119.832 254.825C120.971 255.386 122.5 256.137 123.994 256.929C124.751 257.322 125.487 257.729 126.188 258.108C126.889 258.486 127.533 258.844 128.085 259.16L129.394 259.945C129.55 260.05 129.713 260.057 129.706 260.268C129.711 260.367 129.699 260.467 129.67 260.562L129.656 260.647Z" fill="#E0E0E0"/>
<path d="M131.022 261.601C129.996 263.361 128.326 264.315 126.563 263.368L126.464 263.319H126.422C126.162 263.124 125.958 262.866 125.827 262.57C125.697 262.274 125.646 261.95 125.678 261.629C125.728 260.709 125.996 259.814 126.461 259.017C126.926 258.22 127.575 257.543 128.354 257.042C128.611 256.861 128.908 256.746 129.22 256.704C129.532 256.663 129.849 256.697 130.145 256.803L130.237 256.859L130.399 256.957C132.049 257.981 132.035 259.868 131.022 261.601Z" fill="#263238"/>
<path d="M129.515 258.788C130.478 258.241 131.256 258.683 131.256 259.784C131.224 260.383 131.05 260.966 130.748 261.485C130.445 262.004 130.023 262.445 129.515 262.772C128.553 263.319 127.774 262.877 127.774 261.776C127.807 261.177 127.982 260.595 128.284 260.076C128.587 259.557 129.008 259.116 129.515 258.788Z" fill="#455A64"/>
<path d="M135.156 261.734C133.581 260.94 132.127 259.93 130.838 258.732L128.283 262.891C130.015 263.376 131.664 264.116 133.174 265.086L135.156 261.734Z" fill="#455A64"/>
<path d="M136.862 262.372C136.852 261.82 136.625 261.294 136.227 260.907C135.83 260.52 135.295 260.303 134.738 260.303C134.496 260.311 134.257 260.358 134.031 260.443H133.91C133.795 260.485 133.683 260.536 133.578 260.598C132.961 260.994 132.447 261.529 132.078 262.159C131.709 262.789 131.495 263.496 131.454 264.224C131.455 264.4 131.474 264.577 131.511 264.75C131.652 265.212 131.949 265.612 132.353 265.883C132.757 266.154 133.242 266.278 133.728 266.237C134.213 266.195 134.67 265.988 135.02 265.652C135.37 265.317 135.593 264.871 135.651 264.392C135.658 264.327 135.658 264.261 135.651 264.196C136.002 264.03 136.3 263.773 136.514 263.451C136.727 263.13 136.848 262.757 136.862 262.372Z" fill="#263238"/>
<path d="M134.773 261.348C135.941 260.682 136.897 261.222 136.897 262.561C136.856 263.289 136.642 263.996 136.273 264.626C135.904 265.256 135.39 265.791 134.773 266.187C133.605 266.889 132.65 266.314 132.65 264.981C132.69 264.253 132.904 263.544 133.273 262.913C133.642 262.281 134.156 261.745 134.773 261.348Z" fill="#455A64"/>
<path d="M145.879 255.891L145.787 255.983C145.715 256.053 145.634 256.114 145.547 256.165C145.37 256.277 145.278 256.165 145.115 256.06L143.791 255.288L141.923 254.187C141.215 253.787 140.507 253.345 139.799 252.897C138.384 252.006 136.968 251.087 135.885 250.372C134.802 249.656 134.137 249.172 134.137 249.172C134.137 249.172 134.915 249.516 136.055 250.077C137.194 250.638 138.723 251.382 140.217 252.181C140.974 252.567 141.71 252.981 142.411 253.359C143.112 253.738 143.756 254.061 144.308 254.405C144.86 254.748 145.32 254.98 145.646 255.155C145.794 255.26 145.957 255.267 145.95 255.478C145.964 255.575 145.964 255.674 145.95 255.772L145.879 255.891Z" fill="#E0E0E0"/>
<path d="M147.217 256.845C146.191 258.606 144.52 259.56 142.758 258.613L142.659 258.557H142.616C142.357 258.361 142.152 258.103 142.022 257.808C141.892 257.512 141.841 257.188 141.873 256.866C141.925 255.946 142.194 255.052 142.659 254.254C143.124 253.456 143.771 252.777 144.549 252.272C144.806 252.093 145.104 251.979 145.415 251.938C145.727 251.898 146.044 251.933 146.339 252.041L146.439 252.09C146.495 252.119 146.547 252.154 146.594 252.195C148.251 253.226 148.236 255.106 147.217 256.845Z" fill="#263238"/>
<path d="M145.709 254.033C146.672 253.479 147.45 253.928 147.45 255.029C147.418 255.626 147.243 256.208 146.941 256.726C146.638 257.244 146.216 257.684 145.709 258.01C144.754 258.564 143.975 258.115 143.975 257.021C144.007 256.423 144.18 255.84 144.482 255.321C144.783 254.802 145.203 254.361 145.709 254.033Z" fill="#455A64"/>
<path d="M151.336 256.971C149.761 256.178 148.308 255.167 147.019 253.97L144.471 258.136C146.203 258.612 147.85 259.35 149.355 260.324L151.336 256.971Z" fill="#455A64"/>
<path d="M153.056 257.617C153.047 257.065 152.819 256.539 152.422 256.152C152.025 255.765 151.49 255.548 150.933 255.548C150.69 255.552 150.45 255.6 150.225 255.688H150.182L150.105 255.723C149.991 255.765 149.879 255.814 149.772 255.87C149.154 256.268 148.64 256.804 148.271 257.435C147.902 258.066 147.689 258.775 147.648 259.503C147.648 259.678 147.67 259.853 147.712 260.022C147.798 260.534 148.076 260.996 148.49 261.314C148.904 261.632 149.424 261.783 149.946 261.738C150.468 261.693 150.953 261.454 151.306 261.07C151.658 260.686 151.851 260.184 151.846 259.665V259.475C152.202 259.307 152.504 259.045 152.717 258.716C152.931 258.388 153.048 258.007 153.056 257.617Z" fill="#263238"/>
<path d="M150.968 256.565C152.136 255.898 153.092 256.438 153.092 257.771C153.052 258.5 152.839 259.209 152.47 259.84C152.101 260.472 151.586 261.008 150.968 261.404C149.8 262.07 148.845 261.53 148.845 260.191C148.886 259.464 149.1 258.756 149.469 258.126C149.838 257.496 150.352 256.961 150.968 256.565Z" fill="#455A64"/>
<path d="M100.636 256.326V256.2C100.608 256.104 100.594 256.005 100.594 255.905C100.594 255.695 100.749 255.688 100.905 255.583L102.243 254.832C102.795 254.517 103.439 254.131 104.14 253.78C104.841 253.43 105.555 252.995 106.327 252.602C107.828 251.816 109.335 251.052 110.489 250.498C111.643 249.944 112.414 249.6 112.414 249.6C112.414 249.6 111.706 250.098 110.666 250.799C109.625 251.501 108.189 252.427 106.752 253.317C106.044 253.773 105.336 254.201 104.628 254.608C103.92 255.015 103.305 255.393 102.76 255.709L101.436 256.48C101.266 256.565 101.181 256.698 100.997 256.586C100.909 256.542 100.83 256.482 100.764 256.41L100.636 256.326Z" fill="#E0E0E0"/>
<path d="M99.2701 257.273C100.303 259.034 101.974 259.987 103.736 259.041L103.835 258.991H103.871C104.132 258.797 104.338 258.539 104.469 258.243C104.6 257.948 104.653 257.623 104.621 257.301C104.57 256.382 104.301 255.488 103.836 254.691C103.371 253.894 102.724 253.217 101.946 252.714C101.689 252.534 101.392 252.418 101.08 252.377C100.768 252.335 100.451 252.369 100.155 252.476L100.056 252.532C100.001 252.561 99.9492 252.593 99.9 252.63C98.2508 253.633 98.2508 255.541 99.2701 257.273Z" fill="#263238"/>
<path d="M100.778 254.461C99.8221 253.913 99.0435 254.355 99.0435 255.456C99.0751 256.055 99.2486 256.637 99.5499 257.156C99.8512 257.675 100.272 258.116 100.778 258.444C101.74 258.991 102.519 258.549 102.519 257.448C102.486 256.85 102.311 256.267 102.008 255.748C101.706 255.229 101.284 254.788 100.778 254.461Z" fill="#455A64"/>
<path d="M95.1436 257.406C96.7188 256.613 98.1724 255.602 99.4612 254.405L102.009 258.564C100.277 259.048 98.6284 259.788 97.1183 260.759L95.1436 257.406Z" fill="#455A64"/>
<path d="M93.4381 258.045C93.4315 257.772 93.4798 257.5 93.5802 257.246C93.6806 256.992 93.831 256.761 94.0228 256.565C94.2145 256.369 94.4437 256.213 94.6969 256.106C94.9502 255.998 95.2224 255.942 95.4978 255.941C95.7619 255.935 96.0245 255.982 96.2693 256.081H96.3189H96.3967C96.5086 256.125 96.6173 256.177 96.7223 256.235C97.3388 256.632 97.8524 257.167 98.2213 257.797C98.5902 258.427 98.8042 259.134 98.8457 259.861C98.8455 260.038 98.8242 260.215 98.782 260.387C98.6961 260.899 98.4183 261.36 98.0042 261.678C97.5901 261.996 97.0702 262.148 96.5483 262.103C96.0263 262.058 95.5408 261.819 95.1886 261.435C94.8365 261.05 94.6436 260.549 94.6484 260.029C94.6414 259.964 94.6414 259.898 94.6484 259.833C94.3 259.674 94.0025 259.423 93.789 259.108C93.5754 258.792 93.4539 258.424 93.4381 258.045Z" fill="#263238"/>
<path d="M95.5258 257C94.3579 256.298 93.4023 256.866 93.4023 258.206C93.4439 258.933 93.6579 259.64 94.0268 260.27C94.3957 260.9 94.9092 261.435 95.5258 261.832C96.6937 262.533 97.6492 261.958 97.6492 260.626C97.6098 259.898 97.3969 259.19 97.0277 258.559C96.6586 257.929 96.1439 257.395 95.5258 257Z" fill="#455A64"/>
<path d="M53.7368 250.87L227.546 151.438V16.8257L53.7368 116.258V250.87Z" fill="#2196F3"/>
<path opacity="0.6" d="M53.7368 250.87L227.546 151.438V16.8257L53.7368 116.258V250.87Z" fill="white"/>
<path d="M45.7173 111.671L53.7368 116.258L227.546 16.8257L235.566 3.05798L45.7173 111.671Z" fill="#37474F"/>
<path d="M235.566 156.032V3.05798L227.546 16.8257V151.438L235.566 156.032Z" fill="#455A64"/>
<path d="M45.7173 111.671L53.7368 116.258V250.87L45.7173 264.637V111.671Z" fill="#455A64"/>
<path d="M53.7368 250.87L227.546 151.438L235.566 156.032L45.7173 264.637L53.7368 250.87Z" fill="#37474F"/>
<path d="M235.566 3.05793L230.214 0L40.3662 108.613L45.7172 111.671L235.566 3.05793Z" fill="#455A64"/>
<path d="M40.3662 108.613L45.7172 111.671V264.637L40.3662 261.579V108.613Z" fill="#263238"/>
<path d="M227.546 16.8257L224.871 18.3547L224.864 149.916L53.7368 247.812V250.87L227.546 151.438V16.8257Z" fill="#263238"/>
<path d="M106.419 138.112L70.4056 158.711C70.1995 158.845 70.0282 159.026 69.9053 159.238C69.7824 159.45 69.7113 159.687 69.6978 159.931V217.941C69.6978 218.397 70.0163 218.579 70.4056 218.348L106.419 197.749C106.625 197.614 106.796 197.434 106.919 197.222C107.042 197.01 107.113 196.772 107.127 196.528V138.519C107.127 138.07 106.808 137.908 106.419 138.112Z" fill="#455A64"/>
<path d="M110.192 136.976L108.946 136.274C108.726 136.167 108.484 136.112 108.238 136.112C107.993 136.112 107.751 136.167 107.53 136.274L71.5101 156.845C71.3027 156.98 71.1305 157.161 71.0075 157.375C70.8845 157.588 70.8141 157.827 70.8022 158.073V216.075C70.8141 216.321 70.8845 216.56 71.0075 216.773C71.1305 216.986 71.3027 217.168 71.5101 217.303L72.7558 218.004C72.9761 218.111 73.2182 218.167 73.4636 218.167C73.709 218.167 73.9511 218.111 74.1714 218.004L110.178 197.398C110.384 197.264 110.555 197.083 110.678 196.871C110.801 196.659 110.872 196.422 110.885 196.178V138.196C110.875 137.953 110.807 137.716 110.686 137.503C110.566 137.291 110.396 137.111 110.192 136.976Z" fill="#FAFAFA"/>
<path d="M89.9558 168.228L71.0077 157.385C70.8755 157.596 70.8023 157.838 70.7954 158.087V216.089C70.8073 216.335 70.8776 216.574 71.0006 216.787C71.1237 217 71.2959 217.182 71.5032 217.317L72.749 218.018C72.9692 218.125 73.2114 218.181 73.4568 218.181C73.7022 218.181 73.9443 218.125 74.1646 218.018L89.9912 204.39C90.0903 190.777 90.1823 168.355 89.9558 168.228Z" fill="#E0E0E0"/>
<path d="M110.192 137.789L74.1853 158.388C73.978 158.523 73.8058 158.704 73.6828 158.918C73.5597 159.131 73.4894 159.37 73.4775 159.616V217.625C73.4775 218.074 73.7961 218.256 74.1853 218.032L110.192 197.426C110.398 197.292 110.569 197.111 110.692 196.899C110.815 196.687 110.886 196.45 110.899 196.206V138.196C110.906 137.747 110.588 137.565 110.192 137.789Z" fill="#F0F0F0"/>
<path d="M75.5235 159.153L108.868 140.083C109.265 139.858 109.576 140.041 109.576 140.49V194.719C109.563 194.964 109.492 195.202 109.369 195.415C109.246 195.628 109.074 195.81 108.868 195.946L75.5306 215.016C75.1413 215.241 74.8228 215.058 74.8228 214.602V160.352C74.8387 160.112 74.9102 159.879 75.0318 159.671C75.1533 159.463 75.3215 159.286 75.5235 159.153Z" fill="#FAFAFA"/>
<path d="M74.8086 160.352V169.996C75.8986 170.388 77.3001 170.206 78.8148 169.336C82.3538 167.331 85.1851 162.449 85.1851 158.437C85.1851 156.579 84.5763 155.239 83.5783 154.524L75.5376 159.125C75.3271 159.258 75.1514 159.438 75.0247 159.652C74.898 159.865 74.824 160.105 74.8086 160.352Z" fill="#2196F3"/>
<path d="M103.524 158.15L94.8608 178.686L89.1983 174.127C89.0974 174.042 88.9802 173.977 88.8537 173.938C88.7273 173.898 88.5941 173.884 88.4621 173.897C88.3301 173.909 88.2019 173.948 88.0852 174.01C87.9685 174.073 87.8657 174.158 87.7827 174.26C87.7297 174.327 87.6846 174.4 87.6482 174.477L74.8086 202.392V214.581C74.8086 215.037 75.1271 215.22 75.5164 214.995L80.556 212.112L108.868 195.925C109.074 195.789 109.246 195.607 109.369 195.394C109.492 195.181 109.563 194.943 109.576 194.698V164.153L105.251 157.974C105.179 157.868 105.087 157.777 104.979 157.706C104.872 157.635 104.751 157.585 104.624 157.561C104.497 157.536 104.367 157.536 104.24 157.561C104.113 157.587 103.993 157.636 103.885 157.708C103.723 157.816 103.597 157.97 103.524 158.15Z" fill="#2196F3"/>
<path d="M94.2873 155.008C93.2609 156.768 91.5834 157.722 89.821 156.775L89.7219 156.726C89.4689 156.527 89.2712 156.267 89.1473 155.972C89.0235 155.676 88.9777 155.354 89.0141 155.036C89.0624 154.117 89.3294 153.222 89.7931 152.425C90.2569 151.628 90.9043 150.951 91.6825 150.449C91.9393 150.269 92.2364 150.153 92.5483 150.111C92.8602 150.07 93.1776 150.104 93.4733 150.21L93.5724 150.267C93.6268 150.295 93.6789 150.328 93.7281 150.365C95.3136 151.389 95.2994 153.275 94.2873 155.008Z" fill="#263238"/>
<path d="M92.7798 152.195C93.7424 151.648 94.521 152.09 94.521 153.191C94.4891 153.79 94.3148 154.373 94.0122 154.892C93.7096 155.411 93.2873 155.852 92.7798 156.179C91.8172 156.726 91.0386 156.284 91.0386 155.183C91.0715 154.585 91.2464 154.002 91.5489 153.483C91.8514 152.964 92.2731 152.523 92.7798 152.195Z" fill="#455A64"/>
<path d="M98.4136 155.141C96.8406 154.347 95.3893 153.337 94.103 152.139L91.5479 156.298C93.28 156.783 94.9288 157.523 96.4388 158.493L98.4136 155.141Z" fill="#455A64"/>
<path d="M100.12 155.779C100.121 155.509 100.07 155.242 99.9671 154.992C99.8646 154.742 99.7134 154.514 99.5222 154.322C99.3309 154.13 99.1033 153.977 98.8524 153.872C98.6015 153.767 98.3322 153.712 98.0598 153.71C97.7957 153.704 97.5332 153.752 97.2883 153.85H97.2459L97.1609 153.885C97.0491 153.93 96.9403 153.981 96.8353 154.04C96.2188 154.436 95.7053 154.971 95.3364 155.601C94.9674 156.231 94.7535 156.939 94.7119 157.666C94.7121 157.843 94.7335 158.02 94.7756 158.192C94.9167 158.654 95.2141 159.054 95.6178 159.325C96.0215 159.596 96.5069 159.721 96.9925 159.679C97.4781 159.637 97.9344 159.431 98.2847 159.095C98.635 158.759 98.858 158.314 98.9163 157.834C98.9234 157.769 98.9234 157.703 98.9163 157.638C99.271 157.469 99.5713 157.206 99.7838 156.877C99.9962 156.549 100.112 156.169 100.12 155.779Z" fill="#263238"/>
<path d="M99.5223 157.995C100.347 156.579 100.346 155.048 99.5195 154.576C98.6934 154.103 97.3552 154.868 96.5306 156.284C95.706 157.7 95.7073 159.23 96.5334 159.703C97.3595 160.175 98.6977 159.411 99.5223 157.995Z" fill="#455A64"/>
<path d="M155.965 77.0934L119.952 97.6924C119.745 97.826 119.573 98.0063 119.45 98.2184C119.327 98.4305 119.257 98.6684 119.244 98.9127V156.922C119.244 157.378 119.563 157.561 119.952 157.329L155.965 136.73C156.171 136.595 156.342 136.415 156.465 136.203C156.588 135.991 156.659 135.754 156.673 135.51V77.5002C156.673 77.0513 156.355 76.89 155.965 77.0934Z" fill="#455A64"/>
<path d="M159.738 75.9574L158.492 75.256C158.273 75.1452 158.031 75.0874 157.785 75.0874C157.539 75.0874 157.296 75.1452 157.077 75.256L121.056 95.8269C120.85 95.9629 120.679 96.1446 120.556 96.3577C120.433 96.5707 120.362 96.8093 120.349 97.0543V155.057C120.362 155.302 120.433 155.54 120.556 155.753C120.679 155.966 120.85 156.148 121.056 156.284L122.302 156.986C122.522 157.093 122.765 157.148 123.01 157.148C123.255 157.148 123.498 157.093 123.718 156.986L159.724 136.38C159.932 136.247 160.104 136.067 160.227 135.854C160.35 135.642 160.421 135.404 160.432 135.159V77.1777C160.423 76.9343 160.355 76.6965 160.234 76.4842C160.114 76.2719 159.944 76.0913 159.738 75.9574Z" fill="#FAFAFA"/>
<path d="M139.502 107.21L120.554 96.3669C120.423 96.5787 120.35 96.8203 120.341 97.0683V155.071C120.355 155.316 120.426 155.554 120.549 155.767C120.672 155.981 120.843 156.162 121.049 156.298L122.295 157C122.515 157.107 122.757 157.162 123.003 157.162C123.248 157.162 123.49 157.107 123.71 157L139.537 143.372C139.636 129.759 139.728 107.336 139.502 107.21Z" fill="#E0E0E0"/>
<path d="M159.738 76.771L123.732 97.3699C123.526 97.5059 123.355 97.6876 123.232 97.9007C123.109 98.1138 123.038 98.3523 123.024 98.5973V156.607C123.024 157.056 123.343 157.238 123.732 157.014L159.738 136.408C159.946 136.275 160.119 136.095 160.242 135.883C160.365 135.67 160.435 135.432 160.446 135.187V77.1778C160.453 76.7289 160.135 76.5465 159.738 76.771Z" fill="#F0F0F0"/>
<path d="M125.07 98.1343L158.415 79.0643C158.811 78.8399 159.123 79.0222 159.123 79.4711V133.7C159.111 133.946 159.04 134.185 158.917 134.398C158.794 134.611 158.622 134.793 158.415 134.928L125.077 153.998C124.688 154.222 124.369 154.04 124.369 153.584V99.3336C124.386 99.0941 124.458 98.8615 124.58 98.6537C124.701 98.4458 124.869 98.2682 125.07 98.1343Z" fill="#FAFAFA"/>
<path d="M124.355 99.3337V108.977C125.445 109.37 126.846 109.188 128.361 108.318C131.9 106.312 134.731 101.431 134.731 97.419C134.731 95.5604 134.123 94.2208 133.125 93.5054L125.084 98.1063C124.874 98.2399 124.698 98.4207 124.572 98.6339C124.445 98.8471 124.371 99.0868 124.355 99.3337Z" fill="#2196F3"/>
<path d="M153.071 97.1315L144.407 117.667L138.745 113.108C138.627 113.016 138.49 112.951 138.343 112.918C138.197 112.886 138.045 112.886 137.898 112.92C137.752 112.954 137.615 113.02 137.498 113.113C137.382 113.206 137.287 113.325 137.223 113.459L124.383 141.373V153.563C124.383 154.019 124.702 154.201 125.091 153.977L130.102 151.094L158.415 134.907C158.622 134.772 158.794 134.591 158.917 134.377C159.04 134.164 159.111 133.925 159.123 133.679V103.135L154.798 96.9561C154.727 96.8499 154.635 96.7587 154.528 96.6878C154.421 96.6169 154.301 96.5676 154.174 96.5428C154.048 96.5181 153.918 96.5183 153.792 96.5435C153.666 96.5687 153.546 96.6183 153.439 96.6896C153.275 96.7974 153.146 96.9512 153.071 97.1315Z" fill="#2196F3"/>
<path d="M143.834 93.9893C142.808 95.7498 141.13 96.7036 139.368 95.7568L139.269 95.7077C139.017 95.5073 138.82 95.2475 138.697 94.9521C138.573 94.6568 138.526 94.3353 138.561 94.0174C138.612 93.0992 138.88 92.2057 139.344 91.4089C139.807 90.6122 140.453 89.9345 141.229 89.4305C141.486 89.2508 141.783 89.1353 142.095 89.0938C142.407 89.0523 142.724 89.086 143.02 89.192L143.119 89.2481C143.177 89.2699 143.23 89.3034 143.275 89.3463C144.86 90.3703 144.846 92.257 143.834 93.9893Z" fill="#263238"/>
<path d="M142.326 91.177C143.288 90.6299 144.067 91.0718 144.067 92.1729C144.036 92.7718 143.861 93.3549 143.559 93.8743C143.256 94.3936 142.834 94.8345 142.326 95.1607C141.363 95.7078 140.584 95.2659 140.584 94.1648C140.617 93.5661 140.791 92.9835 141.094 92.4643C141.397 91.9451 141.819 91.504 142.326 91.177Z" fill="#455A64"/>
<path d="M147.96 94.1224C146.389 93.3266 144.938 92.3161 143.65 91.1206L141.095 95.2797C142.828 95.7614 144.477 96.5016 145.986 97.4749L147.96 94.1224Z" fill="#455A64"/>
<path d="M149.666 94.7608C149.672 94.4236 149.594 94.0902 149.438 93.7903C149.282 93.4905 149.054 93.2335 148.773 93.0425C148.493 92.8514 148.169 92.7322 147.831 92.6955C147.492 92.6588 147.15 92.7057 146.835 92.8321H146.792L146.707 92.8671C146.595 92.9099 146.486 92.9615 146.382 93.0214C145.765 93.4181 145.252 93.953 144.883 94.583C144.514 95.213 144.3 95.9203 144.258 96.6475C144.266 96.8242 144.287 97.0001 144.322 97.1735C144.417 97.6788 144.698 98.131 145.111 98.442C145.524 98.753 146.039 98.9006 146.556 98.8559C147.073 98.8113 147.554 98.5777 147.907 98.2005C148.259 97.8234 148.457 97.3298 148.463 96.8158C148.47 96.7505 148.47 96.6847 148.463 96.6194C148.821 96.4559 149.126 96.194 149.339 95.8646C149.552 95.5352 149.666 95.1521 149.666 94.7608Z" fill="#263238"/>
<path d="M149.077 96.974C149.902 95.5582 149.901 94.0275 149.075 93.5551C148.249 93.0827 146.91 93.8474 146.086 95.2632C145.261 96.679 145.262 98.2096 146.089 98.6821C146.915 99.1545 148.253 98.3898 149.077 96.974Z" fill="#455A64"/>
<path d="M208.669 83.5672L172.656 104.166C172.45 104.301 172.279 104.482 172.156 104.693C172.033 104.905 171.962 105.143 171.948 105.386V163.396C171.948 163.852 172.266 164.034 172.656 163.803L208.669 143.204C208.875 143.069 209.046 142.889 209.169 142.677C209.292 142.465 209.363 142.228 209.377 141.983V83.974C209.377 83.5251 209.086 83.3638 208.669 83.5672Z" fill="#455A64"/>
<path d="M212.47 82.4309L211.224 81.7296C211.004 81.6225 210.762 81.5668 210.517 81.5668C210.271 81.5668 210.029 81.6225 209.809 81.7296L173.788 102.3C173.581 102.435 173.409 102.617 173.286 102.83C173.163 103.043 173.092 103.282 173.081 103.528V161.53C173.092 161.776 173.163 162.015 173.286 162.228C173.409 162.442 173.581 162.623 173.788 162.758L175.034 163.459C175.253 163.57 175.496 163.628 175.742 163.628C175.988 163.628 176.231 163.57 176.45 163.459L212.456 142.853C212.663 142.72 212.835 142.539 212.958 142.327C213.081 142.115 213.151 141.877 213.164 141.633V83.6513C213.153 83.4082 213.084 83.1711 212.964 82.9591C212.843 82.7471 212.674 82.5661 212.47 82.4309Z" fill="#FAFAFA"/>
<path d="M192.234 113.683L173.279 102.84C173.147 103.051 173.073 103.294 173.066 103.542V161.544C173.078 161.79 173.149 162.029 173.272 162.242C173.395 162.456 173.567 162.637 173.774 162.772L175.02 163.473C175.239 163.584 175.482 163.642 175.728 163.642C175.974 163.642 176.216 163.584 176.436 163.473L192.269 149.832C192.39 136.232 192.46 113.81 192.234 113.683Z" fill="#E0E0E0"/>
<path d="M212.47 83.2445L176.464 103.843C176.256 103.978 176.084 104.16 175.961 104.373C175.838 104.586 175.768 104.825 175.756 105.071V163.08C175.756 163.529 176.074 163.712 176.464 163.487L212.47 142.881C212.677 142.748 212.849 142.567 212.972 142.355C213.095 142.143 213.165 141.905 213.178 141.661V83.6513C213.185 83.2024 212.866 83.02 212.47 83.2445Z" fill="#F0F0F0"/>
<path d="M177.802 104.608L211.147 85.5379C211.543 85.3135 211.854 85.4959 211.854 85.9447V140.174C211.841 140.419 211.77 140.657 211.647 140.871C211.524 141.084 211.353 141.265 211.147 141.401L177.809 160.471C177.42 160.696 177.101 160.513 177.101 160.057V105.807C177.118 105.568 177.19 105.335 177.311 105.127C177.433 104.919 177.601 104.742 177.802 104.608Z" fill="#FAFAFA"/>
<path d="M177.087 105.807V115.465C178.177 115.858 179.578 115.675 181.093 114.806C184.632 112.8 187.463 107.918 187.463 103.907C187.463 102.048 186.855 100.708 185.857 99.993L177.816 104.594C177.608 104.726 177.433 104.905 177.307 105.115C177.18 105.326 177.105 105.563 177.087 105.807Z" fill="#2196F3"/>
<path d="M205.837 103.605L197.174 124.141L191.511 119.582C191.41 119.497 191.293 119.432 191.167 119.393C191.04 119.353 190.907 119.34 190.775 119.352C190.643 119.364 190.515 119.403 190.398 119.465C190.282 119.528 190.179 119.613 190.096 119.715C190.044 119.783 189.999 119.856 189.961 119.933L177.122 147.847V160.036C177.122 160.492 177.44 160.675 177.829 160.45L182.834 157.547L211.146 141.359C211.352 141.223 211.523 141.041 211.646 140.828C211.769 140.615 211.84 140.377 211.854 140.132V109.609L207.529 103.43C207.383 103.216 207.156 103.068 206.9 103.02C206.644 102.971 206.379 103.025 206.163 103.17C206.014 103.28 205.9 103.431 205.837 103.605Z" fill="#2196F3"/>
<path d="M268.401 137.481C267.551 133.848 265.845 126.512 264.048 118.544C263.135 114.483 262.094 110.45 259.036 109.819C259.036 109.819 250.981 112.975 250.981 118.86C250.981 124.744 257.585 126.96 257.585 126.96C257.585 126.96 261.832 138.652 261.74 140.286" fill="#FFA8A7"/>
<path d="M196.764 100.596C195.737 102.357 194.067 103.31 192.304 102.364L192.205 102.314H192.163C191.903 102.119 191.699 101.861 191.569 101.565C191.438 101.269 191.387 100.945 191.42 100.624C191.47 99.704 191.738 98.8085 192.203 98.0103C192.668 97.2122 193.316 96.5338 194.095 96.0303C194.353 95.8529 194.651 95.7393 194.962 95.699C195.274 95.6587 195.59 95.693 195.886 95.7989L195.985 95.848L196.141 95.9532C197.79 96.9771 197.776 98.8638 196.764 100.596Z" fill="#263238"/>
<path d="M195.256 97.7838C196.218 97.2367 196.997 97.6786 196.997 98.7797C196.964 99.3783 196.789 99.9607 196.487 100.48C196.184 100.999 195.762 101.44 195.256 101.768C194.3 102.315 193.521 101.873 193.521 100.772C193.555 100.174 193.729 99.5923 194.03 99.0734C194.331 98.5546 194.751 98.1129 195.256 97.7838Z" fill="#455A64"/>
<path d="M200.883 100.737C199.308 99.9433 197.854 98.9326 196.565 97.7347L194.01 101.894C195.744 102.375 197.393 103.116 198.901 104.089L200.883 100.737Z" fill="#455A64"/>
<path d="M241.227 108.192C238.453 108.192 235.678 107.975 233.59 109.447C228.183 113.256 221.338 118.285 218.018 121.055C218.018 121.055 208.222 101.522 204.634 99.0252C202.319 97.4121 200.486 96.7318 198.879 96.6406C198.135 96.5656 197.384 96.6706 196.69 96.9467C195.996 97.2228 195.38 97.6617 194.894 98.2256C193.38 99.979 193.939 102.434 197.485 101.845C198.433 101.683 199.134 99.7406 199.134 99.7406C200.012 99.8248 199.417 102.777 200.281 102.981C201.781 104.994 203.494 104.152 204.344 106.326C205.512 109.328 212.675 128.567 213.814 130.032C215.067 131.645 216.73 132.221 219.477 130.818C222.223 129.415 236.273 120.662 236.273 120.662L241.227 108.192Z" fill="#FFA8A7"/>
<path d="M202.603 101.368C202.603 100.816 202.384 100.286 201.994 99.8922C201.603 99.4986 201.072 99.2729 200.515 99.2637C200.261 99.2647 200.009 99.3123 199.772 99.404H199.729L199.651 99.439C199.536 99.4803 199.425 99.532 199.319 99.5933C198.702 99.9895 198.188 100.524 197.819 101.154C197.45 101.785 197.236 102.492 197.195 103.219C197.196 103.397 197.217 103.573 197.259 103.745C197.345 104.257 197.623 104.719 198.037 105.037C198.451 105.355 198.971 105.506 199.493 105.461C200.015 105.416 200.5 105.177 200.852 104.793C201.205 104.409 201.397 103.907 201.393 103.388C201.4 103.322 201.4 103.257 201.393 103.191C201.743 103.026 202.042 102.769 202.255 102.447C202.468 102.126 202.589 101.752 202.603 101.368Z" fill="#263238"/>
<path d="M200.515 100.316C201.683 99.6144 202.638 100.19 202.638 101.529C202.597 102.256 202.383 102.964 202.014 103.594C201.645 104.224 201.132 104.759 200.515 105.155C199.347 105.821 198.392 105.281 198.392 103.949C198.432 103.22 198.646 102.512 199.014 101.88C199.383 101.249 199.898 100.713 200.515 100.316Z" fill="#455A64"/>
<path d="M256.977 232.073H251.229V240.363H256.977V232.073Z" fill="#FFA8A7"/>
<path d="M241.554 237.916C241.207 238.933 239.48 239.739 238.234 240.658C237.762 240.986 237.424 241.469 237.28 242.022C237.136 242.575 237.196 243.161 237.448 243.674C237.915 244.473 240.117 244.887 242.46 244.515C245.107 244.088 247.414 242.986 247.881 240.658C248.179 238.707 248.702 236.796 249.439 234.963C249.899 233.764 250.706 232.634 250.514 231.456C250.392 230.88 250.153 230.335 249.812 229.853C249.472 229.371 249.037 228.962 248.533 228.651C248.533 228.651 244.187 238.414 242.962 238.645C241.738 238.876 241.554 237.916 241.554 237.916Z" fill="#263238"/>
<path d="M241.356 224.877C241.356 224.877 242.276 228.111 242.58 229.17C242.885 230.229 242.46 235.622 241.872 237.109C241.645 237.973 241.135 238.738 240.421 239.283C240.421 239.283 238.659 240.798 240.697 241.1C241.538 241.298 242.418 241.258 243.237 240.984C244.055 240.71 244.78 240.213 245.326 239.55C246.678 238.021 246.848 233.637 247.754 231.835C248.335 230.678 248.759 229.969 248.915 229.59C249.071 229.212 248.512 229.008 247.945 227.374C247.497 225.763 247.163 224.122 246.947 222.465L241.356 224.877Z" fill="#FFA8A7"/>
<path d="M260.983 147.587C263.984 155.856 261.365 170.276 260.587 178.447C259.829 186.366 258.888 195.624 258.888 195.624C258.888 195.624 261.337 203.998 261.217 210.45C261.096 217.303 257.048 233.806 257.048 233.806C256.168 234.365 255.145 234.663 254.1 234.663C253.054 234.663 252.031 234.365 251.152 233.806C251.152 233.806 250.118 219.954 249.184 212.063C248.2 203.851 247.867 197.861 247.018 193.057C245.949 187.074 244.994 163.494 244.994 163.494L240.52 188.336C241.928 191.291 243.063 194.367 243.911 197.524C245.171 202.385 247.634 225.172 247.634 225.172C247.634 225.172 245.843 227.753 241.851 227.325C241.851 227.325 230.271 194.361 229.11 191.247C227.525 186.941 230.2 158.655 231.078 149.165L260.983 147.587Z" fill="#455A64"/>
<path d="M250.776 108.494C250.776 108.494 258.067 109.398 259.036 109.833C251.406 115.15 257.585 126.974 257.585 126.974L253.891 137.039C257.048 140.546 258.952 142.482 260.969 147.559C258.845 150 245.623 158.431 231.085 149.166C231.383 144.277 231.955 139.409 232.798 134.584C230.675 124.646 230.483 121.511 231.085 119.189C232.805 112.66 236.712 108.452 241.228 108.22L250.776 108.494Z" fill="#2196F3"/>
<path opacity="0.2" d="M250.776 108.494C250.776 108.494 258.067 109.398 259.036 109.833C251.406 115.15 257.585 126.974 257.585 126.974L253.891 137.039C257.048 140.546 258.952 142.482 260.969 147.559C258.845 150 245.623 158.431 231.085 149.166C231.383 144.277 231.955 139.409 232.798 134.584C230.675 124.646 230.483 121.511 231.085 119.189C232.805 112.66 236.712 108.452 241.228 108.22L250.776 108.494Z" fill="black"/>
<path d="M251.229 237.551V236.737C250.521 239.433 249.104 241.894 247.124 243.87C245.312 245.504 242.834 247.377 242.204 249.222C241.575 251.066 245.128 251.88 247.471 251.641C249.748 251.368 251.847 250.28 253.374 248.583C254.86 246.893 254.839 245.736 255.497 244.803C256.155 243.87 257.798 242.825 258.173 241.752C258.378 241.156 258.13 239.858 257.84 238.757C257.55 237.656 257.288 236.653 256.941 236.737V237.362C256.122 237.998 255.108 238.337 254.067 238.322C253.26 238.358 251.222 238.203 251.229 237.551Z" fill="#263238"/>
<path d="M256.977 237.362C256.8 236.8 255.271 238.154 253.969 238.203C253.126 238.238 251.845 238.14 251.845 237.502L251.229 236.737C250.521 239.433 249.105 241.894 247.124 243.87L245.744 245.083C244.774 246.15 245.036 247.075 247.315 247.272C249.594 247.468 251.562 246.107 253.296 244.017C255.03 241.927 256.977 237.362 256.977 237.362Z" fill="#FFA8A7"/>
<path d="M245.807 103.647H244.448C242.73 103.647 241.028 103.312 239.44 102.66C237.852 102.008 236.409 101.053 235.194 99.8488C233.979 98.6446 233.015 97.215 232.357 95.6416C231.699 94.0682 231.361 92.3819 231.361 90.6789V89.3604C231.361 86.4362 232.533 83.6319 234.62 81.5642C236.706 79.4966 239.537 78.335 242.488 78.335H247.846C249.307 78.335 250.754 78.6201 252.104 79.1742C253.454 79.7283 254.68 80.5404 255.713 81.5642C256.747 82.588 257.566 83.8035 258.125 85.1411C258.685 86.4788 258.972 87.9125 258.972 89.3604V90.6018C258.972 94.0616 257.585 97.3797 255.116 99.8262C252.647 102.273 249.299 103.647 245.807 103.647Z" fill="#263238"/>
<path d="M235.898 83.8478C234.44 84.7034 232.635 88.3365 232.812 95.9533C232.968 102.406 235.077 104.005 236.139 104.461C237.2 104.917 239.246 104.643 241.228 104.313V108.192C241.228 108.192 238.481 111.355 238.658 113.102C238.835 114.848 242.622 115.297 245.199 113.564C247.775 111.832 249.934 108.444 249.934 108.444L249.891 99.5372C249.891 99.5372 251.059 100.659 253.041 98.9411C254.683 97.5383 255.235 95.1327 253.954 93.8492C253.685 93.5947 253.367 93.3953 253.02 93.2625C252.673 93.1297 252.303 93.066 251.93 93.0751C251.558 93.0842 251.192 93.166 250.852 93.3156C250.511 93.4653 250.204 93.68 249.948 93.9474C249.728 94.1807 249.549 94.4485 249.417 94.7399C249.417 94.7399 246.246 94.8591 242.02 92.5587C240.382 91.6839 238.975 90.4397 237.911 88.9266C236.847 87.4134 236.158 85.6737 235.898 83.8478Z" fill="#FFA8A7"/>
<path d="M240.088 94.3331C240.087 94.4924 240.133 94.6486 240.221 94.7823C240.309 94.9159 240.434 95.0211 240.581 95.0848C240.729 95.1485 240.892 95.1678 241.05 95.1405C241.209 95.1132 241.356 95.0403 241.473 94.931C241.59 94.8217 241.672 94.6807 241.709 94.5256C241.745 94.3705 241.736 94.208 241.68 94.0584C241.625 93.9088 241.526 93.7787 241.397 93.6841C241.267 93.5896 241.113 93.5347 240.952 93.5265C240.842 93.5227 240.733 93.5405 240.63 93.5786C240.527 93.6168 240.433 93.6747 240.353 93.7489C240.273 93.8232 240.208 93.9124 240.163 94.0114C240.117 94.1104 240.092 94.2173 240.088 94.326V94.3331Z" fill="#263238"/>
<path d="M239.869 99.8037L237.965 100.407C238.03 100.655 238.192 100.868 238.414 101C238.637 101.131 238.903 101.17 239.154 101.108H239.204C239.466 101.022 239.683 100.836 239.808 100.592C239.932 100.347 239.954 100.064 239.869 99.8037Z" fill="#F28F8F"/>
<path d="M233.371 91.8363L235.027 90.7001C234.961 90.5932 234.875 90.5003 234.773 90.4266C234.67 90.3529 234.555 90.2999 234.432 90.2706C234.309 90.2413 234.181 90.2363 234.056 90.2558C233.931 90.2753 233.812 90.3191 233.704 90.3845H233.654C233.539 90.4613 233.441 90.5598 233.365 90.6744C233.288 90.789 233.235 90.9174 233.209 91.0522C233.183 91.187 233.184 91.3257 233.211 91.4602C233.239 91.5948 233.294 91.7225 233.371 91.8363Z" fill="#263238"/>
<path d="M233.754 93.7229C233.753 93.8822 233.799 94.0384 233.886 94.1721C233.974 94.3057 234.099 94.4109 234.247 94.4746C234.394 94.5383 234.557 94.5576 234.716 94.5303C234.874 94.503 235.021 94.4301 235.138 94.3208C235.255 94.2115 235.337 94.0705 235.374 93.9154C235.411 93.7603 235.401 93.5978 235.346 93.4482C235.29 93.2986 235.192 93.1685 235.062 93.0739C234.933 92.9793 234.778 92.9245 234.617 92.9163C234.395 92.9106 234.18 92.9922 234.018 93.1433C233.856 93.2944 233.761 93.5027 233.754 93.7229Z" fill="#263238"/>
<path d="M237.618 93.281L237.491 98.1695L234.893 97.3699L237.618 93.281Z" fill="#F28F8F"/>
<path d="M241.228 104.313C243.351 104.04 247.64 102.82 248.306 101.129C248.038 101.984 247.512 102.735 246.798 103.282C245.51 104.377 241.228 105.646 241.228 105.646V104.313Z" fill="#F28F8F"/>
<path d="M256.071 131.098L250.338 138.799L253.891 137.039L256.071 131.098Z" fill="#2196F3"/>
<path opacity="0.4" d="M256.071 131.098L250.338 138.799L253.891 137.039L256.071 131.098Z" fill="black"/>
<path d="M203.714 105.274C202.687 104.769 201.619 104.349 200.522 104.019C199.859 103.738 199.166 103.536 198.455 103.416C197.924 103.325 197.917 101.732 199.814 101.908C201.711 102.083 202.447 102.188 202.645 101.529L203.714 105.274Z" fill="#FFA8A7"/>
<path d="M261.755 140.293C261.691 141.38 260.558 152.918 259.15 156.958C259.052 157.227 258.898 157.473 258.698 157.68C258.498 157.886 258.257 158.049 257.989 158.157C255.547 159.195 254.797 160.338 253.233 161.748C252.178 162.702 251.322 162.898 251.428 163.235C251.595 163.604 251.895 163.898 252.27 164.059C252.644 164.22 253.066 164.236 253.452 164.104C254.313 163.833 255.138 163.458 255.908 162.989C255.223 164.445 254.308 165.783 253.197 166.952C250.663 169.638 250.437 171.371 255.158 171.735C258.109 171.967 260.601 170.333 263.269 164.02C264.098 161.705 264.784 159.342 265.322 156.944C266.334 153.016 267.757 146.009 268.493 142.313C268.811 140.72 268.784 139.078 268.415 137.495" fill="#FFA8A7"/>
<path d="M257.345 83.6023C259.652 83.6023 261.864 84.5104 263.496 86.127C265.127 87.7435 266.044 89.9359 266.044 92.222V108.451C263.737 108.451 261.524 107.543 259.893 105.927C258.261 104.31 257.345 102.118 257.345 99.8318V83.6023Z" fill="#263238"/>
<path d="M244.994 163.494C244.994 163.494 241.759 161.243 238.659 158.634C238.659 158.634 241.787 162.737 243.613 164.245L241.624 182.207L244.994 163.494Z" fill="#263238"/>
</svg>
