<svg width="537" height="400" viewBox="0 0 537 400" fill="none" xmlns="http://www.w3.org/2000/svg">
<path d="M536.826 351.514H0V351.782H536.826V351.514Z" fill="#E6E6E6"/>
<path d="M450.709 364.473H413.775V364.741H450.709V364.473Z" fill="#E6E6E6"/>
<path d="M285.474 364.967H274.437V365.235H285.474V364.967Z" fill="#E6E6E6"/>
<path d="M402.555 360.651H381.77V360.919H402.555V360.651Z" fill="#E6E6E6"/>
<path d="M105.347 361.284H77.7754V361.552H105.347V361.284Z" fill="#E6E6E6"/>
<path d="M76.702 365.096H57.8701V365.364H76.702V365.096Z" fill="#E6E6E6"/>
<path d="M244.922 358.568H144.342V358.836H244.922V358.568Z" fill="#E6E6E6"/>
<path d="M254.456 303.629H47.1442C45.5202 303.626 43.9636 302.979 42.8162 301.83C41.6688 300.68 41.0244 299.122 41.0244 297.498V6.07687C41.0386 4.46213 41.6892 2.91816 42.8351 1.78035C43.9809 0.642536 45.5294 0.00276615 47.1442 0H254.456C256.082 0 257.641 0.645896 258.791 1.7956C259.94 2.9453 260.586 4.50463 260.586 6.13056V297.498C260.586 299.124 259.94 300.684 258.791 301.833C257.641 302.983 256.082 303.629 254.456 303.629ZM47.1442 0.214731C45.5914 0.217575 44.1031 0.836445 43.006 1.9355C41.909 3.03456 41.2928 4.52399 41.2928 6.07687V297.498C41.2928 299.051 41.909 300.541 43.006 301.64C44.1031 302.739 45.5914 303.358 47.1442 303.361H254.456C256.01 303.358 257.499 302.739 258.598 301.64C259.697 300.542 260.315 299.052 260.318 297.498V6.07687C260.315 4.52301 259.697 3.0336 258.598 1.93485C257.499 0.836097 256.01 0.217569 254.456 0.214731H47.1442Z" fill="#E6E6E6"/>
<path d="M486.698 303.629H279.375C277.75 303.626 276.192 302.979 275.043 301.83C273.894 300.681 273.247 299.123 273.245 297.498V6.07687C273.262 4.46115 273.915 2.9172 275.062 1.77968C276.21 0.642161 277.759 0.00273598 279.375 0H486.698C488.31 0.00558782 489.856 0.646606 491 1.78412C492.143 2.92163 492.792 4.46398 492.807 6.07687V297.498C492.807 299.121 492.164 300.677 491.019 301.826C489.874 302.975 488.32 303.623 486.698 303.629ZM279.375 0.214731C277.821 0.217569 276.332 0.836097 275.233 1.93485C274.134 3.0336 273.516 4.52301 273.513 6.07687V297.498C273.516 299.052 274.134 300.542 275.233 301.64C276.332 302.739 277.821 303.358 279.375 303.361H486.698C488.251 303.358 489.741 302.739 490.84 301.64C491.938 300.542 492.557 299.052 492.56 297.498V6.07687C492.557 4.52301 491.938 3.0336 490.84 1.93485C489.741 0.836097 488.251 0.217569 486.698 0.214731H279.375Z" fill="#E6E6E6"/>
<path d="M308.45 218.682L310.844 217.425L313.227 218.682V351.514H308.45V218.682Z" fill="#F0F0F0"/>
<path d="M336.042 218.682L338.437 217.425L340.82 218.682V351.514H336.042V218.682Z" fill="#F0F0F0"/>
<path d="M363.635 218.682L366.03 217.425L368.413 218.682V351.514H363.635V218.682Z" fill="#F0F0F0"/>
<path d="M391.229 218.682L393.623 217.425L396.006 218.682V351.514H391.229V218.682Z" fill="#F0F0F0"/>
<path d="M418.832 218.682L421.216 217.425L423.61 218.682V351.514H418.832V218.682Z" fill="#F0F0F0"/>
<path d="M446.425 218.682L448.808 217.425L451.203 218.682V351.514H446.425V218.682Z" fill="#F0F0F0"/>
<path d="M474.018 218.682L476.401 217.425L478.795 218.682V351.514H474.018V218.682Z" fill="#F0F0F0"/>
<path d="M310.844 239.994L476.401 239.994V235.699L310.844 235.699V239.994Z" fill="#F0F0F0"/>
<path d="M310.844 330.18H476.401V325.886H310.844V330.18Z" fill="#F0F0F0"/>
<path d="M249.495 45.9094H131.651V306.549H249.495V45.9094Z" fill="#EBEBEB"/>
<path d="M249.506 45.9094H137.245V306.549H249.506V45.9094Z" fill="#FAFAFA"/>
<path d="M243.601 300.633L243.601 51.8252L143.161 51.8252V300.633H243.601Z" fill="#FAFAFA"/>
<path d="M235.216 94.5888V67.4146H151.525V94.5888H235.216Z" fill="#EBEBEB"/>
<path d="M235.216 285.162V225.725H151.525V285.162H235.216Z" fill="#EBEBEB"/>
<path d="M151.525 218.059H189.339V102.051H151.525V218.059Z" fill="#EBEBEB"/>
<path d="M197.402 218.059H235.216V102.051H197.402V218.059Z" fill="#EBEBEB"/>
<path d="M243.59 300.633L243.59 51.8252H242.055L242.055 300.633H243.59Z" fill="#F0F0F0"/>
<path d="M235.216 165.45C235.216 166.446 234.921 167.419 234.367 168.247C233.814 169.075 233.028 169.721 232.107 170.102C231.187 170.483 230.175 170.583 229.198 170.389C228.221 170.194 227.324 169.715 226.62 169.01C225.916 168.306 225.436 167.409 225.242 166.432C225.047 165.455 225.147 164.443 225.528 163.523C225.909 162.603 226.555 161.816 227.383 161.263C228.211 160.71 229.185 160.414 230.18 160.414C231.515 160.417 232.794 160.949 233.738 161.892C234.682 162.836 235.213 164.115 235.216 165.45Z" fill="#E0E0E0"/>
<path d="M237.191 164.408C237.194 165.407 236.899 166.384 236.345 167.216C235.792 168.047 235.004 168.696 234.081 169.079C233.159 169.462 232.143 169.563 231.163 169.369C230.184 169.175 229.283 168.694 228.577 167.987C227.871 167.281 227.39 166.381 227.196 165.401C227.001 164.421 227.102 163.406 227.485 162.483C227.869 161.561 228.517 160.773 229.348 160.219C230.18 159.665 231.157 159.371 232.156 159.373C233.491 159.373 234.772 159.904 235.717 160.848C236.661 161.792 237.191 163.073 237.191 164.408Z" fill="#FAFAFA"/>
<path d="M154.134 306.549H131.651V329.032H154.134V306.549Z" fill="#EBEBEB"/>
<path d="M154.133 329.021H272.031V306.539H154.133V329.021Z" fill="#FAFAFA"/>
<path d="M176.616 329.032H131.651V351.514H176.616V329.032Z" fill="#EBEBEB"/>
<path d="M176.616 351.514H294.514V329.032H176.616V351.514Z" fill="#FAFAFA"/>
<path d="M338.469 45.9094H285.474V185.012H338.469V45.9094Z" fill="#E0E0E0"/>
<path d="M341.701 45.9094H288.705V185.012H341.701V45.9094Z" fill="#F5F5F5"/>
<path d="M335.892 178.473V52.4265H294.524V178.473H335.892Z" fill="white"/>
<path d="M335.892 178.484V52.4372H333.444V178.484H335.892Z" fill="#E0E0E0"/>
<path d="M339.296 139.306H291.11V148.067H339.296V139.306Z" fill="#F5F5F5"/>
<path d="M409.92 45.9094H356.925V185.012H409.92V45.9094Z" fill="#E0E0E0"/>
<path d="M413.152 45.9094H360.157V185.012H413.152V45.9094Z" fill="#F5F5F5"/>
<path d="M407.344 178.473V52.4265H365.976V178.473H407.344Z" fill="white"/>
<path d="M407.344 178.484V52.4372H404.896V178.484H407.344Z" fill="#E0E0E0"/>
<path d="M410.747 139.306H362.562V148.067H410.747V139.306Z" fill="#F5F5F5"/>
<path d="M481.361 45.9094H428.366V185.012H481.361V45.9094Z" fill="#E0E0E0"/>
<path d="M484.604 45.9094H431.608V185.012H484.604V45.9094Z" fill="#F5F5F5"/>
<path d="M478.795 178.484V52.4372H437.428V178.484H478.795Z" fill="white"/>
<path d="M478.785 178.484V52.4372H476.337V178.484H478.785Z" fill="#E0E0E0"/>
<path d="M482.199 139.306H434.013V148.067H482.199V139.306Z" fill="#F5F5F5"/>
<path d="M110.866 45.9094H57.8701V185.012H110.866V45.9094Z" fill="#E0E0E0"/>
<path d="M114.108 45.9094H61.1123V185.012H114.108V45.9094Z" fill="#F5F5F5"/>
<path d="M108.299 178.484L108.299 52.4372H66.9315V178.484H108.299Z" fill="white"/>
<path d="M108.289 178.484L108.289 52.4372H105.841L105.841 178.484H108.289Z" fill="#E0E0E0"/>
<path d="M111.703 139.306H63.5171V148.067H111.703V139.306Z" fill="#F5F5F5"/>
<path d="M131.662 20.9362V34.8937H140.649L131.662 20.9362Z" fill="#EBEBEB"/>
<path d="M249.506 20.9362H131.662L140.649 34.8937H258.493L249.506 20.9362Z" fill="#FAFAFA"/>
<path d="M268.413 400C383.383 400 476.584 394.559 476.584 387.846C476.584 381.134 383.383 375.693 268.413 375.693C153.444 375.693 60.2427 381.134 60.2427 387.846C60.2427 394.559 153.444 400 268.413 400Z" fill="#F5F5F5"/>
<path d="M273.642 368.327L363.055 372.214L350.161 80.1052L260.736 76.2186L273.642 368.327Z" fill="#2196F3"/>
<path opacity="0.6" d="M273.642 368.327L363.055 372.214L350.161 80.1052L260.736 76.2186L273.642 368.327Z" fill="black"/>
<path d="M185.119 384.722L273.642 368.327L260.737 76.2186L172.214 92.6132L185.119 384.722Z" fill="#2196F3"/>
<path opacity="0.6" d="M185.119 384.722L273.642 368.327L260.737 76.2186L172.214 92.6132L185.119 384.722Z" fill="black"/>
<path d="M95.6944 380.835L185.119 384.722L172.214 92.6132L82.7891 88.7266L95.6944 380.835Z" fill="#2196F3"/>
<path opacity="0.6" d="M95.6944 380.835L185.119 384.722L172.214 92.6132L82.7891 88.7266L95.6944 380.835Z" fill="black"/>
<path d="M124.634 85.1488L124.59 86.1464L142.439 86.9225L142.482 85.925L124.634 85.1488Z" fill="#2196F3"/>
<path d="M84.3896 217.418L83.3921 217.462L83.6954 224.326L84.6929 224.282L84.3896 217.418Z" fill="#2196F3"/>
<path d="M84.937 229.345L83.9395 229.39L84.6219 244.835L85.6194 244.791L84.937 229.345Z" fill="#2196F3"/>
<path opacity="0.6" d="M134.335 186.493C147.552 186.493 158.267 175.779 158.267 162.562C158.267 149.345 147.552 138.63 134.335 138.63C121.118 138.63 110.403 149.345 110.403 162.562C110.403 175.779 121.118 186.493 134.335 186.493Z" fill="#2196F3"/>
<path opacity="0.2" d="M254.982 280.983C261.201 274.119 260.679 263.514 253.815 257.295C246.952 251.076 236.346 251.598 230.127 258.462C223.908 265.325 224.43 275.931 231.294 282.15C238.157 288.369 248.763 287.847 254.982 280.983Z" fill="#2196F3"/>
<path d="M355.905 278.548L299.27 249.087L321.022 183.96L344.964 203.554L353.253 193.429L266.878 122.74L208.17 85.7311L201.192 96.7897L234.625 117.866L171.967 176.219L90.5195 236.472L98.2928 246.94L122.675 228.903L151.857 378.538L164.687 376.036L134.325 220.324L154.574 205.293L174.683 219.251L265.514 246.167L283.144 255.358L264.441 293.977L238.351 365.428L250.633 369.916L276.519 299.055L294.771 261.402L349.882 290.112L355.905 278.548ZM180.374 207.333L165.643 197.123L179.987 186.515L180.277 186.289L246.017 125.091L259.169 133.391L310.146 175.102L287.492 242.935L270.442 234.056L180.374 207.333Z" fill="#2196F3"/>
<g style="mix-blend-mode:multiply" opacity="0.3">
<path d="M185.957 384.722L274.479 368.327L261.574 76.2186L173.051 92.6132L185.957 384.722Z" fill="#263238"/>
</g>
<path opacity="0.1" d="M134.335 186.493C147.552 186.493 158.267 175.779 158.267 162.562C158.267 149.345 147.552 138.63 134.335 138.63C121.118 138.63 110.403 149.345 110.403 162.562C110.403 175.779 121.118 186.493 134.335 186.493Z" fill="black"/>
<path opacity="0.7" d="M355.905 278.548L299.27 249.087L321.022 183.96L344.964 203.554L353.253 193.429L266.878 122.74L208.17 85.7311L201.192 96.7897L234.625 117.866L171.967 176.219L90.5195 236.472L98.2928 246.94L122.675 228.903L151.857 378.538L164.687 376.036L134.325 220.324L154.574 205.293L174.683 219.251L265.514 246.167L283.144 255.358L264.441 293.977L238.351 365.428L250.633 369.916L276.519 299.055L294.771 261.402L349.882 290.112L355.905 278.548ZM180.374 207.333L165.643 197.123L179.987 186.515L180.277 186.289L246.017 125.091L259.169 133.391L310.146 175.102L287.492 242.935L270.442 234.056L180.374 207.333Z" fill="black"/>
<path d="M351.664 80.5239L260.607 76.5729L172.074 92.9568L81.1143 89.0058L94.1806 384.915L185.248 388.877L273.781 372.482L364.752 376.444L351.664 80.5239ZM274.361 359.437L272.879 359.373L271.419 359.652L184.357 375.757L106.721 372.375L94.8033 102.673L171.505 106.002L172.997 106.066L174.458 105.798L261.52 89.6929L339.134 93.0642L351.084 362.755L274.361 359.437Z" fill="#2196F3"/>
<path opacity="0.7" d="M351.664 80.5239L260.607 76.5729L172.074 92.9568L81.1143 89.0058L94.1806 384.915L185.248 388.877L273.781 372.482L364.752 376.444L351.664 80.5239ZM274.361 359.437L272.879 359.373L271.419 359.652L184.357 375.757L106.721 372.375L94.8033 102.673L171.505 106.002L172.997 106.066L174.458 105.798L261.52 89.6929L339.134 93.0642L351.084 362.755L274.361 359.437Z" fill="black"/>
<path opacity="0.7" d="M124.634 85.1488L124.59 86.1464L142.439 86.9225L142.482 85.925L124.634 85.1488Z" fill="black"/>
<path opacity="0.7" d="M84.3896 217.418L83.3921 217.462L83.6954 224.326L84.6929 224.282L84.3896 217.418Z" fill="black"/>
<path opacity="0.7" d="M84.937 229.345L83.9395 229.39L84.6219 244.835L85.6194 244.791L84.937 229.345Z" fill="black"/>
<path d="M397.842 139.94C389.834 133.15 379.608 129.542 369.113 129.804C358.617 130.066 348.584 134.179 340.924 141.36C333.265 148.54 328.514 158.287 327.576 168.744C326.638 179.202 329.579 189.638 335.839 198.067L335.259 213.882L350.762 210.661C360.109 215.437 370.886 216.609 381.041 213.955C391.196 211.3 400.02 205.005 405.835 196.267C411.65 187.528 414.048 176.957 412.574 166.564C411.101 156.172 405.857 146.685 397.842 139.908V139.94Z" fill="#2196F3"/>
<path d="M372.91 204.807C390.689 203.308 403.887 187.68 402.388 169.901C400.888 152.122 385.26 138.924 367.481 140.424C349.702 141.923 336.504 157.551 338.004 175.33C339.503 193.109 355.131 206.307 372.91 204.807Z" fill="#2196F3"/>
<path opacity="0.3" d="M372.91 204.807C390.689 203.308 403.887 187.68 402.388 169.901C400.888 152.122 385.26 138.924 367.481 140.424C349.702 141.923 336.504 157.551 338.004 175.33C339.503 193.109 355.131 206.307 372.91 204.807Z" fill="black"/>
<path d="M388.641 382.21H380.76L379.977 363.947H387.857L388.641 382.21Z" fill="#E4897B"/>
<path d="M429.149 144.256C429.837 145.609 430.406 146.811 430.953 148.1C431.501 149.388 432.027 150.644 432.574 151.922C433.648 154.488 434.55 157.097 435.387 159.749C436.225 162.401 437.009 165.117 437.61 167.866C437.943 169.229 438.179 170.646 438.458 172.053C438.737 173.459 438.898 174.887 439.016 176.347L439.124 177.421V177.7V178.108C439.156 178.519 439.156 178.932 439.124 179.343C438.998 180.874 438.492 182.35 437.653 183.637C436.454 185.393 434.852 186.836 432.982 187.846C430.283 189.314 427.392 190.398 424.393 191.067C418.962 192.341 413.405 193.007 407.827 193.053L407.075 187.181C412.013 185.894 416.877 184.339 421.645 182.521C423.743 181.716 425.739 180.668 427.593 179.397C428.312 178.87 428.795 178.237 428.666 178.216C428.528 178.378 428.445 178.582 428.43 178.795C428.425 178.874 428.425 178.953 428.43 179.032C428.43 179.032 428.43 179.096 428.43 179.032V178.924V178.699L428.258 177.818C427.295 172.96 425.937 168.188 424.2 163.549C423.341 161.166 422.407 158.793 421.451 156.431C420.496 154.069 419.444 151.675 418.477 149.506L429.149 144.256Z" fill="#E4897B"/>
<path d="M427.754 138.501C434.604 141.722 438.491 163.303 438.491 163.303L421.774 169.97C419.333 163.994 417.359 157.838 415.869 151.557C413.571 141.615 420.765 135.173 427.754 138.501Z" fill="#2196F3"/>
<path opacity="0.7" d="M427.754 138.501C434.604 141.722 438.491 163.303 438.491 163.303L421.774 169.97C419.333 163.994 417.359 157.838 415.869 151.557C413.571 141.615 420.765 135.173 427.754 138.501Z" fill="white"/>
<path d="M447.864 382.21H439.972L434.54 363.947H442.431L447.864 382.21Z" fill="#E4897B"/>
<path d="M379.977 363.947L380.374 373.363H388.265L387.868 363.947H379.977Z" fill="#CE6F64"/>
<path d="M442.431 363.947H434.54L437.342 373.363H445.233L442.431 363.947Z" fill="#CE6F64"/>
<path d="M396.639 206.528C396.639 206.528 390.101 261.971 395.008 284.518C400.376 309.212 434.228 371.548 434.228 371.548H448.679C448.679 371.548 421.742 311.241 418.671 286.73C415.343 260.157 423.867 228.065 423.867 206.517L396.639 206.528Z" fill="#2196F3"/>
<path opacity="0.6" d="M396.639 206.528C396.639 206.528 390.101 261.971 395.008 284.518C400.376 309.212 434.228 371.548 434.228 371.548H448.679C448.679 371.548 421.742 311.241 418.671 286.73C415.343 260.157 423.867 228.065 423.867 206.517L396.639 206.528Z" fill="black"/>
<path d="M408.643 186.816L403.135 184.84L403.307 194.922C403.307 194.922 407.763 195.212 410.232 192.313L408.643 186.816Z" fill="#E4897B"/>
<path d="M396.178 184.475L396.715 192.796L403.307 194.911L403.135 184.84L396.178 184.475Z" fill="#E4897B"/>
<path d="M387.728 114.881C387.857 115.504 387.632 116.073 387.224 116.158C386.816 116.244 386.386 115.804 386.257 115.181C386.129 114.559 386.354 113.979 386.762 113.904C387.17 113.829 387.589 114.226 387.728 114.881Z" fill="#263238"/>
<path d="M387.685 116.03C387.323 118.087 386.68 120.085 385.774 121.967C386.258 122.192 386.786 122.308 387.32 122.308C387.854 122.308 388.382 122.192 388.866 121.967L387.685 116.03Z" fill="#DE5753"/>
<path d="M386.118 111.026C386.056 111.025 385.995 111.008 385.941 110.978C385.887 110.949 385.841 110.906 385.806 110.855C385.779 110.813 385.76 110.767 385.751 110.718C385.743 110.67 385.744 110.62 385.755 110.572C385.766 110.523 385.787 110.478 385.816 110.438C385.845 110.398 385.882 110.365 385.924 110.339C386.442 110.051 387.022 109.892 387.614 109.875C388.207 109.859 388.794 109.985 389.328 110.243C389.417 110.285 389.486 110.36 389.52 110.452C389.554 110.545 389.551 110.647 389.51 110.737C389.491 110.782 389.462 110.822 389.426 110.856C389.391 110.89 389.348 110.916 389.302 110.933C389.256 110.95 389.207 110.958 389.158 110.955C389.109 110.953 389.061 110.941 389.016 110.919C388.595 110.713 388.131 110.61 387.663 110.619C387.194 110.628 386.734 110.75 386.322 110.973C386.259 111.007 386.189 111.025 386.118 111.026Z" fill="#263238"/>
<path d="M410.436 115.954C409.298 121.72 408.17 132.295 412.207 136.15C412.207 136.15 410.629 142.001 399.914 142.001C388.104 142.001 394.277 136.15 394.277 136.15C400.719 134.604 400.547 129.837 399.42 125.349L410.436 115.954Z" fill="#E4897B"/>
<path d="M391.948 137.245L393.258 134.894C393.258 134.894 413.657 131.168 414.226 135.312C414.281 136.187 414.19 137.065 413.958 137.911L391.948 137.245Z" fill="#2196F3"/>
<path d="M436.665 382.618C436.329 382.661 435.988 382.637 435.662 382.547C435.335 382.457 435.03 382.302 434.765 382.091C434.669 381.965 434.617 381.81 434.617 381.651C434.617 381.492 434.669 381.338 434.765 381.211C434.824 381.1 434.906 381.003 435.006 380.927C435.107 380.851 435.222 380.798 435.345 380.771C436.504 380.492 438.673 381.995 438.77 382.059C438.8 382.079 438.824 382.107 438.839 382.141C438.853 382.175 438.857 382.212 438.85 382.247C438.843 382.283 438.826 382.316 438.8 382.342C438.774 382.368 438.741 382.385 438.705 382.392C438.035 382.537 437.351 382.613 436.665 382.618ZM435.677 381.114C435.599 381.103 435.52 381.103 435.441 381.114C435.37 381.129 435.302 381.158 435.243 381.201C435.184 381.244 435.134 381.298 435.098 381.361C434.926 381.673 435.033 381.802 435.098 381.845C435.43 382.285 437.041 382.295 438.222 382.102C437.455 381.598 436.586 381.272 435.677 381.147V381.114Z" fill="#2196F3"/>
<path d="M438.673 382.403C438.645 382.414 438.615 382.414 438.587 382.403C437.771 381.963 436.193 380.255 436.354 379.354C436.383 379.216 436.459 379.093 436.569 379.005C436.678 378.917 436.815 378.87 436.955 378.87C437.096 378.855 437.24 378.868 437.376 378.909C437.512 378.949 437.639 379.017 437.749 379.107C438.662 379.858 438.823 382.134 438.823 382.231C438.828 382.265 438.822 382.299 438.806 382.33C438.791 382.361 438.767 382.386 438.737 382.403C438.716 382.407 438.694 382.407 438.673 382.403ZM437.084 379.182H436.976C436.729 379.182 436.708 379.321 436.697 379.375C436.601 379.89 437.61 381.2 438.415 381.812C438.361 380.915 438.039 380.055 437.492 379.343C437.374 379.254 437.231 379.205 437.084 379.203V379.182Z" fill="#2196F3"/>
<path d="M377.593 382.618C376.573 382.618 375.596 382.478 375.274 382.016C375.19 381.897 375.145 381.754 375.145 381.608C375.145 381.462 375.19 381.32 375.274 381.2C375.339 381.093 375.424 381 375.526 380.926C375.627 380.852 375.742 380.8 375.864 380.771C377.185 380.406 379.933 381.984 380.052 382.049C380.086 382.066 380.114 382.095 380.132 382.129C380.149 382.164 380.155 382.203 380.148 382.242C380.142 382.279 380.124 382.314 380.097 382.341C380.07 382.368 380.035 382.386 379.998 382.392C379.204 382.536 378.399 382.611 377.593 382.618ZM376.337 381.082C376.219 381.07 376.1 381.07 375.982 381.082C375.905 381.099 375.832 381.132 375.767 381.178C375.703 381.224 375.648 381.283 375.607 381.351C375.478 381.576 375.531 381.694 375.607 381.759C375.972 382.274 377.969 382.285 379.44 382.07C378.478 381.544 377.425 381.209 376.337 381.082Z" fill="#2196F3"/>
<path d="M379.976 382.403H379.89C378.946 381.973 377.056 380.255 377.206 379.375C377.206 379.171 377.389 378.903 377.893 378.86C378.085 378.833 378.28 378.848 378.465 378.903C378.651 378.959 378.822 379.054 378.967 379.182C379.966 379.998 380.18 382.124 380.191 382.209C380.194 382.242 380.189 382.275 380.176 382.305C380.162 382.335 380.142 382.361 380.116 382.381C380.073 382.403 380.024 382.411 379.976 382.403ZM378.044 379.182H377.926C377.593 379.182 377.571 379.354 377.561 379.397C377.475 379.933 378.752 381.265 379.708 381.855C379.605 380.953 379.23 380.103 378.634 379.418C378.463 379.289 378.258 379.214 378.044 379.203V379.182Z" fill="#2196F3"/>
<path d="M437.073 382.22H447.713C447.89 382.214 448.064 382.264 448.209 382.365C448.354 382.466 448.463 382.611 448.518 382.779L450.376 390.004C450.407 390.195 450.394 390.39 450.337 390.574C450.28 390.758 450.181 390.927 450.047 391.066C449.914 391.206 449.75 391.312 449.569 391.378C449.387 391.443 449.193 391.465 449.001 391.443C445.297 391.443 443.494 391.207 438.834 391.207C435.967 391.207 430.051 391.464 426.1 391.464C422.149 391.464 421.613 388.093 423.234 387.782C430.513 386.408 433.251 384.561 435.581 382.725C436.009 382.398 436.534 382.22 437.073 382.22Z" fill="#263238"/>
<path d="M380.814 381.297H389.403C389.559 381.296 389.71 381.349 389.831 381.447C389.953 381.545 390.036 381.681 390.069 381.834L391.636 388.845C391.675 389.015 391.675 389.191 391.636 389.361C391.597 389.531 391.519 389.69 391.41 389.825C391.3 389.961 391.161 390.07 391.003 390.143C390.845 390.217 390.672 390.254 390.498 390.251C387.385 390.198 382.897 390.015 378.999 390.015C374.426 390.015 370.485 390.262 365.128 390.262C361.907 390.262 360.994 386.987 362.347 386.697C368.52 385.345 373.556 385.205 378.892 381.909C379.463 381.529 380.128 381.317 380.814 381.297Z" fill="#263238"/>
<path d="M391.293 149.903C387.567 154.273 383.777 158.493 379.912 162.787C376.047 167.082 372.096 171.162 368.048 175.274L365.042 178.301L364.58 178.752C364.321 179.007 364.049 179.247 363.764 179.472C363.237 179.881 362.673 180.241 362.079 180.545C361.062 181.079 359.979 181.476 358.858 181.726C355.467 182.41 351.979 182.454 348.572 181.855C342.619 180.886 336.819 179.142 331.318 176.67L333.079 171.011C338.448 171.896 343.873 172.405 349.313 172.536C350.553 172.543 351.794 172.482 353.028 172.353C354.05 172.262 355.056 172.042 356.023 171.698C356.301 171.593 356.565 171.452 356.807 171.28C356.861 171.226 356.893 171.194 356.882 171.172L356.989 171.054L357.161 170.85L359.931 167.629L371.054 154.746C374.78 150.451 378.57 146.156 382.328 141.969L391.293 149.903Z" fill="#E4897B"/>
<path opacity="0.2" d="M420.807 152.695L415.826 151.621C417.316 157.902 419.29 164.058 421.731 170.034L428.634 167.275C427.217 163.571 423.631 158.128 420.807 152.695Z" fill="#2196F3"/>
<path d="M378.462 156.335C378.237 160.479 378.194 165.536 378.462 171.699L385.795 153.811L378.462 156.335Z" fill="#2196F3"/>
<path d="M334.142 171.57L328.14 165.804L324.833 175.467C324.833 175.467 327.131 178.323 332.682 176.831L334.142 171.57Z" fill="#E4897B"/>
<path d="M323.588 163.807L321.258 172.257L324.834 175.489L328.14 165.804L323.588 163.807Z" fill="#E4897B"/>
<path d="M408.267 109.341C409.341 117.103 410.361 121.58 407.279 126.294C402.652 133.38 392.495 131.769 389.124 124.49C386.096 117.941 384.829 106.356 391.744 101.804C393.256 100.792 395.002 100.183 396.816 100.036C398.63 99.8891 400.452 100.208 402.108 100.964C403.763 101.719 405.198 102.885 406.277 104.351C407.355 105.818 408.04 107.535 408.267 109.341Z" fill="#E4897B"/>
<path d="M416.813 105.218C416.921 100.204 413.335 96.5535 411.51 97.0904C409.362 88.1039 394.009 92.6669 394.009 92.6669C394.009 92.6669 397.584 87.5671 390.649 87.5456C383.713 87.5241 385.656 93.0749 385.656 93.0749C385.656 93.0749 381.437 88.9413 378.688 93.4185C375.94 97.8956 381.909 99.4524 381.909 99.4524C381.909 99.4524 376.927 98.3036 376.272 104.821C375.617 111.338 384.486 106.141 384.486 106.141C385.989 108.911 387.76 109.459 389.478 109.233C390.387 109.13 391.304 109.346 392.07 109.846C392.837 110.346 393.405 111.097 393.676 111.971C396.156 119.487 400.902 126.262 407.977 124.189C413.635 122.514 416.652 112.551 416.813 105.218Z" fill="#263238"/>
<path d="M398.325 112.658C398.562 114.591 398.159 116.549 397.176 118.231C395.856 120.378 393.87 119.616 393.118 117.415C392.442 115.428 392.313 111.907 394.192 110.468C396.071 109.029 398.014 110.339 398.325 112.658Z" fill="#E4897B"/>
<path opacity="0.3" d="M400.591 225.585C399.281 221.741 396.844 225.714 394.31 232.124C393.419 244.836 392.764 260.039 393.494 272.171C396.425 257.215 403.479 234.056 400.591 225.585Z" fill="black"/>
<path d="M381.684 206.528C381.684 206.528 364.505 256.034 365.343 280.095C366.234 305.111 377.443 371.537 377.443 371.537H390.81C390.81 371.537 388.834 306.571 389.425 281.995C390.08 255.207 409.416 206.528 409.416 206.528H381.684Z" fill="#2196F3"/>
<path opacity="0.6" d="M381.684 206.528C381.684 206.528 364.505 256.034 365.343 280.095C366.234 305.111 377.443 371.537 377.443 371.537H390.81C390.81 371.537 388.834 306.571 389.425 281.995C390.08 255.207 409.416 206.528 409.416 206.528H381.684Z" fill="black"/>
<path d="M430.352 366.47C430.288 366.47 433.412 371.763 433.412 371.763H449.667L448.067 366.47H430.352Z" fill="#2196F3"/>
<path d="M374.866 366.223C374.802 366.223 375.617 371.763 375.617 371.763H391.883L392.324 366.813L374.866 366.223Z" fill="#2196F3"/>
<path d="M382.145 138.351C382.145 138.351 373.749 147.842 381.683 206.528H423.867C424.157 200.086 420.088 168.467 426.337 137.954C421.671 137.05 416.951 136.455 412.207 136.171C406.236 135.817 400.249 135.817 394.277 136.171C390.183 136.583 386.127 137.312 382.145 138.351Z" fill="#2196F3"/>
<path opacity="0.7" d="M382.145 138.351C382.145 138.351 373.749 147.842 381.683 206.528H423.867C424.157 200.086 420.088 168.467 426.337 137.954C421.671 137.05 416.951 136.455 412.207 136.171C406.236 135.817 400.249 135.817 394.277 136.171C390.183 136.583 386.127 137.312 382.145 138.351Z" fill="white"/>
<path d="M390.552 145.33C390.455 152.845 375.693 171.237 375.693 171.237L361.37 160.404C361.37 160.404 365.922 150.054 373.18 143.515C382.424 135.13 390.659 136.504 390.552 145.33Z" fill="#2196F3"/>
<path opacity="0.7" d="M390.552 145.33C390.455 152.845 375.693 171.237 375.693 171.237L361.37 160.404C361.37 160.404 365.922 150.054 373.18 143.515C382.424 135.13 390.659 136.504 390.552 145.33Z" fill="white"/>
</svg>
