<svg width="1440" height="231" viewBox="0 0 1440 231" fill="none" xmlns="http://www.w3.org/2000/svg">
<path opacity="0.25" d="M0 139V177.575C57.348 196.075 124.308 204.383 189.6 200.908C274.032 196.433 353.196 173.15 437.76 169.658C526.368 166.025 614.808 183.725 699.6 199.042C782.724 214.042 865.56 219.775 950.88 209.942C994.26 204.942 1034.7 195.075 1076.22 185.492C1187.39 159.833 1335.6 127.092 1440 182.725V139H0Z" fill="#E8F5E9"/>
<path opacity="0.5" d="M0 139V152.175C15.6 169.767 33.168 186.383 57.228 199.042C119.292 231.725 198 231.5 269.496 215.317C306.876 206.858 341.604 193.592 377.1 182.15C426.204 166.317 478.776 143.817 534.096 140.758C577.608 138.383 619.176 148.608 652.416 167.058C690.54 188.217 727.2 218.725 776.772 227.892C825.3 236.883 874.392 222.317 919.728 207.658C965.064 193 1009.92 175.158 1060.03 171.783C1131.71 166.908 1195.97 190.85 1262.71 204.15C1298.95 211.367 1333.51 209.292 1367.22 197.9C1394.14 188.825 1424.82 175.458 1440 156.867V139H0Z" fill="#E8F5E9"/>
<path d="M0 139V143.692C179.916 188.167 376.908 198.433 570.996 174.475C622.596 168.108 672.072 157.708 724.128 152.425C794.928 145.233 859.104 162.625 922.8 181.925C993.516 203.35 1063.2 218.367 1141.44 214C1245.28 208.167 1348.39 175.908 1440 143.325V139H0Z" fill="#E8F5E9"/>
<rect y="39" width="1440" height="100" fill="#E8F5E9"/>
<path d="M1182.79 30.4076C1088 23.4643 988.536 9.79763 892.608 4.1943C793.896 -1.5857 690.936 -1.24904 592.068 4.3243C522.66 8.2343 455.268 14.681 385.668 18.2776C256.336 24.8858 122.959 21.5324 0 8.58097L0 39.4643H1440V31.3976C1358.63 39.1043 1266.85 36.5676 1182.79 30.4076Z" fill="#E8F5E9"/>
</svg>
